<?xml version="1.0" encoding="utf-8" standalone="no"?>
<!DOCTYPE svg PUBLIC "-//W3C//DTD SVG 1.1//EN"
  "http://www.w3.org/Graphics/SVG/1.1/DTD/svg11.dtd">
<svg xmlns:xlink="http://www.w3.org/1999/xlink" width="432pt" height="288pt" viewBox="0 0 432 288" xmlns="http://www.w3.org/2000/svg" version="1.1">
 <metadata>
  <rdf:RDF xmlns:dc="http://purl.org/dc/elements/1.1/" xmlns:cc="http://creativecommons.org/ns#" xmlns:rdf="http://www.w3.org/1999/02/22-rdf-syntax-ns#">
   <cc:Work>
    <dc:type rdf:resource="http://purl.org/dc/dcmitype/StillImage"/>
    <dc:date>2022-02-22T00:10:40.810207</dc:date>
    <dc:format>image/svg+xml</dc:format>
    <dc:creator>
     <cc:Agent>
      <dc:title>Matplotlib v3.5.1, https://matplotlib.org/</dc:title>
     </cc:Agent>
    </dc:creator>
   </cc:Work>
  </rdf:RDF>
 </metadata>
 <defs>
  <style type="text/css">*{stroke-linejoin: round; stroke-linecap: butt}</style>
 </defs>
 <g id="figure_1">
  <g id="patch_1">
   <path d="M 0 288 
L 432 288 
L 432 0 
L 0 0 
L 0 288 
z
" style="fill: none"/>
  </g>
  <g id="axes_1">
   <g id="patch_2">
    <path d="M 54 252 
L 388.8 252 
L 388.8 34.56 
L 54 34.56 
z
" style="fill: #ffffff"/>
   </g>
   <g id="matplotlib.axis_1">
    <g id="xtick_1">
     <g id="line2d_1">
      <defs>
       <path id="mdd4b494085" d="M 0 0 
L 0 3.5 
" style="stroke: #000000; stroke-width: 0.8"/>
      </defs>
      <g>
       <use xlink:href="#mdd4b494085" x="69.218182" y="252" style="stroke: #000000; stroke-width: 0.8"/>
      </g>
     </g>
     <g id="text_1">
      <!-- 0 -->
      <g transform="translate(66.036932 266.598437)scale(0.1 -0.1)">
       <defs>
        <path id="DejaVuSans-30" d="M 2034 4250 
Q 1547 4250 1301 3770 
Q 1056 3291 1056 2328 
Q 1056 1369 1301 889 
Q 1547 409 2034 409 
Q 2525 409 2770 889 
Q 3016 1369 3016 2328 
Q 3016 3291 2770 3770 
Q 2525 4250 2034 4250 
z
M 2034 4750 
Q 2819 4750 3233 4129 
Q 3647 3509 3647 2328 
Q 3647 1150 3233 529 
Q 2819 -91 2034 -91 
Q 1250 -91 836 529 
Q 422 1150 422 2328 
Q 422 3509 836 4129 
Q 1250 4750 2034 4750 
z
" transform="scale(0.015625)"/>
       </defs>
       <use xlink:href="#DejaVuSans-30"/>
      </g>
     </g>
    </g>
    <g id="xtick_2">
     <g id="line2d_2">
      <g>
       <use xlink:href="#mdd4b494085" x="124.058477" y="252" style="stroke: #000000; stroke-width: 0.8"/>
      </g>
     </g>
     <g id="text_2">
      <!-- 100 -->
      <g transform="translate(114.514727 266.598437)scale(0.1 -0.1)">
       <defs>
        <path id="DejaVuSans-31" d="M 794 531 
L 1825 531 
L 1825 4091 
L 703 3866 
L 703 4441 
L 1819 4666 
L 2450 4666 
L 2450 531 
L 3481 531 
L 3481 0 
L 794 0 
L 794 531 
z
" transform="scale(0.015625)"/>
       </defs>
       <use xlink:href="#DejaVuSans-31"/>
       <use xlink:href="#DejaVuSans-30" x="63.623047"/>
       <use xlink:href="#DejaVuSans-30" x="127.246094"/>
      </g>
     </g>
    </g>
    <g id="xtick_3">
     <g id="line2d_3">
      <g>
       <use xlink:href="#mdd4b494085" x="178.898771" y="252" style="stroke: #000000; stroke-width: 0.8"/>
      </g>
     </g>
     <g id="text_3">
      <!-- 200 -->
      <g transform="translate(169.355021 266.598437)scale(0.1 -0.1)">
       <defs>
        <path id="DejaVuSans-32" d="M 1228 531 
L 3431 531 
L 3431 0 
L 469 0 
L 469 531 
Q 828 903 1448 1529 
Q 2069 2156 2228 2338 
Q 2531 2678 2651 2914 
Q 2772 3150 2772 3378 
Q 2772 3750 2511 3984 
Q 2250 4219 1831 4219 
Q 1534 4219 1204 4116 
Q 875 4013 500 3803 
L 500 4441 
Q 881 4594 1212 4672 
Q 1544 4750 1819 4750 
Q 2544 4750 2975 4387 
Q 3406 4025 3406 3419 
Q 3406 3131 3298 2873 
Q 3191 2616 2906 2266 
Q 2828 2175 2409 1742 
Q 1991 1309 1228 531 
z
" transform="scale(0.015625)"/>
       </defs>
       <use xlink:href="#DejaVuSans-32"/>
       <use xlink:href="#DejaVuSans-30" x="63.623047"/>
       <use xlink:href="#DejaVuSans-30" x="127.246094"/>
      </g>
     </g>
    </g>
    <g id="xtick_4">
     <g id="line2d_4">
      <g>
       <use xlink:href="#mdd4b494085" x="233.739066" y="252" style="stroke: #000000; stroke-width: 0.8"/>
      </g>
     </g>
     <g id="text_4">
      <!-- 300 -->
      <g transform="translate(224.195316 266.598437)scale(0.1 -0.1)">
       <defs>
        <path id="DejaVuSans-33" d="M 2597 2516 
Q 3050 2419 3304 2112 
Q 3559 1806 3559 1356 
Q 3559 666 3084 287 
Q 2609 -91 1734 -91 
Q 1441 -91 1130 -33 
Q 819 25 488 141 
L 488 750 
Q 750 597 1062 519 
Q 1375 441 1716 441 
Q 2309 441 2620 675 
Q 2931 909 2931 1356 
Q 2931 1769 2642 2001 
Q 2353 2234 1838 2234 
L 1294 2234 
L 1294 2753 
L 1863 2753 
Q 2328 2753 2575 2939 
Q 2822 3125 2822 3475 
Q 2822 3834 2567 4026 
Q 2313 4219 1838 4219 
Q 1578 4219 1281 4162 
Q 984 4106 628 3988 
L 628 4550 
Q 988 4650 1302 4700 
Q 1616 4750 1894 4750 
Q 2613 4750 3031 4423 
Q 3450 4097 3450 3541 
Q 3450 3153 3228 2886 
Q 3006 2619 2597 2516 
z
" transform="scale(0.015625)"/>
       </defs>
       <use xlink:href="#DejaVuSans-33"/>
       <use xlink:href="#DejaVuSans-30" x="63.623047"/>
       <use xlink:href="#DejaVuSans-30" x="127.246094"/>
      </g>
     </g>
    </g>
    <g id="xtick_5">
     <g id="line2d_5">
      <g>
       <use xlink:href="#mdd4b494085" x="288.579361" y="252" style="stroke: #000000; stroke-width: 0.8"/>
      </g>
     </g>
     <g id="text_5">
      <!-- 400 -->
      <g transform="translate(279.035611 266.598437)scale(0.1 -0.1)">
       <defs>
        <path id="DejaVuSans-34" d="M 2419 4116 
L 825 1625 
L 2419 1625 
L 2419 4116 
z
M 2253 4666 
L 3047 4666 
L 3047 1625 
L 3713 1625 
L 3713 1100 
L 3047 1100 
L 3047 0 
L 2419 0 
L 2419 1100 
L 313 1100 
L 313 1709 
L 2253 4666 
z
" transform="scale(0.015625)"/>
       </defs>
       <use xlink:href="#DejaVuSans-34"/>
       <use xlink:href="#DejaVuSans-30" x="63.623047"/>
       <use xlink:href="#DejaVuSans-30" x="127.246094"/>
      </g>
     </g>
    </g>
    <g id="xtick_6">
     <g id="line2d_6">
      <g>
       <use xlink:href="#mdd4b494085" x="343.419656" y="252" style="stroke: #000000; stroke-width: 0.8"/>
      </g>
     </g>
     <g id="text_6">
      <!-- 500 -->
      <g transform="translate(333.875906 266.598437)scale(0.1 -0.1)">
       <defs>
        <path id="DejaVuSans-35" d="M 691 4666 
L 3169 4666 
L 3169 4134 
L 1269 4134 
L 1269 2991 
Q 1406 3038 1543 3061 
Q 1681 3084 1819 3084 
Q 2600 3084 3056 2656 
Q 3513 2228 3513 1497 
Q 3513 744 3044 326 
Q 2575 -91 1722 -91 
Q 1428 -91 1123 -41 
Q 819 9 494 109 
L 494 744 
Q 775 591 1075 516 
Q 1375 441 1709 441 
Q 2250 441 2565 725 
Q 2881 1009 2881 1497 
Q 2881 1984 2565 2268 
Q 2250 2553 1709 2553 
Q 1456 2553 1204 2497 
Q 953 2441 691 2322 
L 691 4666 
z
" transform="scale(0.015625)"/>
       </defs>
       <use xlink:href="#DejaVuSans-35"/>
       <use xlink:href="#DejaVuSans-30" x="63.623047"/>
       <use xlink:href="#DejaVuSans-30" x="127.246094"/>
      </g>
     </g>
    </g>
    <g id="text_7">
     <!-- Perportional to Time (1/fps) -->
     <g transform="translate(152.788281 280.276563)scale(0.1 -0.1)">
      <defs>
       <path id="DejaVuSans-50" d="M 1259 4147 
L 1259 2394 
L 2053 2394 
Q 2494 2394 2734 2622 
Q 2975 2850 2975 3272 
Q 2975 3691 2734 3919 
Q 2494 4147 2053 4147 
L 1259 4147 
z
M 628 4666 
L 2053 4666 
Q 2838 4666 3239 4311 
Q 3641 3956 3641 3272 
Q 3641 2581 3239 2228 
Q 2838 1875 2053 1875 
L 1259 1875 
L 1259 0 
L 628 0 
L 628 4666 
z
" transform="scale(0.015625)"/>
       <path id="DejaVuSans-65" d="M 3597 1894 
L 3597 1613 
L 953 1613 
Q 991 1019 1311 708 
Q 1631 397 2203 397 
Q 2534 397 2845 478 
Q 3156 559 3463 722 
L 3463 178 
Q 3153 47 2828 -22 
Q 2503 -91 2169 -91 
Q 1331 -91 842 396 
Q 353 884 353 1716 
Q 353 2575 817 3079 
Q 1281 3584 2069 3584 
Q 2775 3584 3186 3129 
Q 3597 2675 3597 1894 
z
M 3022 2063 
Q 3016 2534 2758 2815 
Q 2500 3097 2075 3097 
Q 1594 3097 1305 2825 
Q 1016 2553 972 2059 
L 3022 2063 
z
" transform="scale(0.015625)"/>
       <path id="DejaVuSans-72" d="M 2631 2963 
Q 2534 3019 2420 3045 
Q 2306 3072 2169 3072 
Q 1681 3072 1420 2755 
Q 1159 2438 1159 1844 
L 1159 0 
L 581 0 
L 581 3500 
L 1159 3500 
L 1159 2956 
Q 1341 3275 1631 3429 
Q 1922 3584 2338 3584 
Q 2397 3584 2469 3576 
Q 2541 3569 2628 3553 
L 2631 2963 
z
" transform="scale(0.015625)"/>
       <path id="DejaVuSans-70" d="M 1159 525 
L 1159 -1331 
L 581 -1331 
L 581 3500 
L 1159 3500 
L 1159 2969 
Q 1341 3281 1617 3432 
Q 1894 3584 2278 3584 
Q 2916 3584 3314 3078 
Q 3713 2572 3713 1747 
Q 3713 922 3314 415 
Q 2916 -91 2278 -91 
Q 1894 -91 1617 61 
Q 1341 213 1159 525 
z
M 3116 1747 
Q 3116 2381 2855 2742 
Q 2594 3103 2138 3103 
Q 1681 3103 1420 2742 
Q 1159 2381 1159 1747 
Q 1159 1113 1420 752 
Q 1681 391 2138 391 
Q 2594 391 2855 752 
Q 3116 1113 3116 1747 
z
" transform="scale(0.015625)"/>
       <path id="DejaVuSans-6f" d="M 1959 3097 
Q 1497 3097 1228 2736 
Q 959 2375 959 1747 
Q 959 1119 1226 758 
Q 1494 397 1959 397 
Q 2419 397 2687 759 
Q 2956 1122 2956 1747 
Q 2956 2369 2687 2733 
Q 2419 3097 1959 3097 
z
M 1959 3584 
Q 2709 3584 3137 3096 
Q 3566 2609 3566 1747 
Q 3566 888 3137 398 
Q 2709 -91 1959 -91 
Q 1206 -91 779 398 
Q 353 888 353 1747 
Q 353 2609 779 3096 
Q 1206 3584 1959 3584 
z
" transform="scale(0.015625)"/>
       <path id="DejaVuSans-74" d="M 1172 4494 
L 1172 3500 
L 2356 3500 
L 2356 3053 
L 1172 3053 
L 1172 1153 
Q 1172 725 1289 603 
Q 1406 481 1766 481 
L 2356 481 
L 2356 0 
L 1766 0 
Q 1100 0 847 248 
Q 594 497 594 1153 
L 594 3053 
L 172 3053 
L 172 3500 
L 594 3500 
L 594 4494 
L 1172 4494 
z
" transform="scale(0.015625)"/>
       <path id="DejaVuSans-69" d="M 603 3500 
L 1178 3500 
L 1178 0 
L 603 0 
L 603 3500 
z
M 603 4863 
L 1178 4863 
L 1178 4134 
L 603 4134 
L 603 4863 
z
" transform="scale(0.015625)"/>
       <path id="DejaVuSans-6e" d="M 3513 2113 
L 3513 0 
L 2938 0 
L 2938 2094 
Q 2938 2591 2744 2837 
Q 2550 3084 2163 3084 
Q 1697 3084 1428 2787 
Q 1159 2491 1159 1978 
L 1159 0 
L 581 0 
L 581 3500 
L 1159 3500 
L 1159 2956 
Q 1366 3272 1645 3428 
Q 1925 3584 2291 3584 
Q 2894 3584 3203 3211 
Q 3513 2838 3513 2113 
z
" transform="scale(0.015625)"/>
       <path id="DejaVuSans-61" d="M 2194 1759 
Q 1497 1759 1228 1600 
Q 959 1441 959 1056 
Q 959 750 1161 570 
Q 1363 391 1709 391 
Q 2188 391 2477 730 
Q 2766 1069 2766 1631 
L 2766 1759 
L 2194 1759 
z
M 3341 1997 
L 3341 0 
L 2766 0 
L 2766 531 
Q 2569 213 2275 61 
Q 1981 -91 1556 -91 
Q 1019 -91 701 211 
Q 384 513 384 1019 
Q 384 1609 779 1909 
Q 1175 2209 1959 2209 
L 2766 2209 
L 2766 2266 
Q 2766 2663 2505 2880 
Q 2244 3097 1772 3097 
Q 1472 3097 1187 3025 
Q 903 2953 641 2809 
L 641 3341 
Q 956 3463 1253 3523 
Q 1550 3584 1831 3584 
Q 2591 3584 2966 3190 
Q 3341 2797 3341 1997 
z
" transform="scale(0.015625)"/>
       <path id="DejaVuSans-6c" d="M 603 4863 
L 1178 4863 
L 1178 0 
L 603 0 
L 603 4863 
z
" transform="scale(0.015625)"/>
       <path id="DejaVuSans-20" transform="scale(0.015625)"/>
       <path id="DejaVuSans-54" d="M -19 4666 
L 3928 4666 
L 3928 4134 
L 2272 4134 
L 2272 0 
L 1638 0 
L 1638 4134 
L -19 4134 
L -19 4666 
z
" transform="scale(0.015625)"/>
       <path id="DejaVuSans-6d" d="M 3328 2828 
Q 3544 3216 3844 3400 
Q 4144 3584 4550 3584 
Q 5097 3584 5394 3201 
Q 5691 2819 5691 2113 
L 5691 0 
L 5113 0 
L 5113 2094 
Q 5113 2597 4934 2840 
Q 4756 3084 4391 3084 
Q 3944 3084 3684 2787 
Q 3425 2491 3425 1978 
L 3425 0 
L 2847 0 
L 2847 2094 
Q 2847 2600 2669 2842 
Q 2491 3084 2119 3084 
Q 1678 3084 1418 2786 
Q 1159 2488 1159 1978 
L 1159 0 
L 581 0 
L 581 3500 
L 1159 3500 
L 1159 2956 
Q 1356 3278 1631 3431 
Q 1906 3584 2284 3584 
Q 2666 3584 2933 3390 
Q 3200 3197 3328 2828 
z
" transform="scale(0.015625)"/>
       <path id="DejaVuSans-28" d="M 1984 4856 
Q 1566 4138 1362 3434 
Q 1159 2731 1159 2009 
Q 1159 1288 1364 580 
Q 1569 -128 1984 -844 
L 1484 -844 
Q 1016 -109 783 600 
Q 550 1309 550 2009 
Q 550 2706 781 3412 
Q 1013 4119 1484 4856 
L 1984 4856 
z
" transform="scale(0.015625)"/>
       <path id="DejaVuSans-2f" d="M 1625 4666 
L 2156 4666 
L 531 -594 
L 0 -594 
L 1625 4666 
z
" transform="scale(0.015625)"/>
       <path id="DejaVuSans-66" d="M 2375 4863 
L 2375 4384 
L 1825 4384 
Q 1516 4384 1395 4259 
Q 1275 4134 1275 3809 
L 1275 3500 
L 2222 3500 
L 2222 3053 
L 1275 3053 
L 1275 0 
L 697 0 
L 697 3053 
L 147 3053 
L 147 3500 
L 697 3500 
L 697 3744 
Q 697 4328 969 4595 
Q 1241 4863 1831 4863 
L 2375 4863 
z
" transform="scale(0.015625)"/>
       <path id="DejaVuSans-73" d="M 2834 3397 
L 2834 2853 
Q 2591 2978 2328 3040 
Q 2066 3103 1784 3103 
Q 1356 3103 1142 2972 
Q 928 2841 928 2578 
Q 928 2378 1081 2264 
Q 1234 2150 1697 2047 
L 1894 2003 
Q 2506 1872 2764 1633 
Q 3022 1394 3022 966 
Q 3022 478 2636 193 
Q 2250 -91 1575 -91 
Q 1294 -91 989 -36 
Q 684 19 347 128 
L 347 722 
Q 666 556 975 473 
Q 1284 391 1588 391 
Q 1994 391 2212 530 
Q 2431 669 2431 922 
Q 2431 1156 2273 1281 
Q 2116 1406 1581 1522 
L 1381 1569 
Q 847 1681 609 1914 
Q 372 2147 372 2553 
Q 372 3047 722 3315 
Q 1072 3584 1716 3584 
Q 2034 3584 2315 3537 
Q 2597 3491 2834 3397 
z
" transform="scale(0.015625)"/>
       <path id="DejaVuSans-29" d="M 513 4856 
L 1013 4856 
Q 1481 4119 1714 3412 
Q 1947 2706 1947 2009 
Q 1947 1309 1714 600 
Q 1481 -109 1013 -844 
L 513 -844 
Q 928 -128 1133 580 
Q 1338 1288 1338 2009 
Q 1338 2731 1133 3434 
Q 928 4138 513 4856 
z
" transform="scale(0.015625)"/>
      </defs>
      <use xlink:href="#DejaVuSans-50"/>
      <use xlink:href="#DejaVuSans-65" x="56.677734"/>
      <use xlink:href="#DejaVuSans-72" x="118.201172"/>
      <use xlink:href="#DejaVuSans-70" x="159.314453"/>
      <use xlink:href="#DejaVuSans-6f" x="222.791016"/>
      <use xlink:href="#DejaVuSans-72" x="283.972656"/>
      <use xlink:href="#DejaVuSans-74" x="325.085938"/>
      <use xlink:href="#DejaVuSans-69" x="364.294922"/>
      <use xlink:href="#DejaVuSans-6f" x="392.078125"/>
      <use xlink:href="#DejaVuSans-6e" x="453.259766"/>
      <use xlink:href="#DejaVuSans-61" x="516.638672"/>
      <use xlink:href="#DejaVuSans-6c" x="577.917969"/>
      <use xlink:href="#DejaVuSans-20" x="605.701172"/>
      <use xlink:href="#DejaVuSans-74" x="637.488281"/>
      <use xlink:href="#DejaVuSans-6f" x="676.697266"/>
      <use xlink:href="#DejaVuSans-20" x="737.878906"/>
      <use xlink:href="#DejaVuSans-54" x="769.666016"/>
      <use xlink:href="#DejaVuSans-69" x="827.625"/>
      <use xlink:href="#DejaVuSans-6d" x="855.408203"/>
      <use xlink:href="#DejaVuSans-65" x="952.820312"/>
      <use xlink:href="#DejaVuSans-20" x="1014.34375"/>
      <use xlink:href="#DejaVuSans-28" x="1046.130859"/>
      <use xlink:href="#DejaVuSans-31" x="1085.144531"/>
      <use xlink:href="#DejaVuSans-2f" x="1148.767578"/>
      <use xlink:href="#DejaVuSans-66" x="1182.458984"/>
      <use xlink:href="#DejaVuSans-70" x="1217.664062"/>
      <use xlink:href="#DejaVuSans-73" x="1281.140625"/>
      <use xlink:href="#DejaVuSans-29" x="1333.240234"/>
     </g>
    </g>
   </g>
   <g id="matplotlib.axis_2">
    <g id="ytick_1">
     <g id="line2d_7">
      <defs>
       <path id="mdd6b2b188c" d="M 0 0 
L -3.5 0 
" style="stroke: #000000; stroke-width: 0.8"/>
      </defs>
      <g>
       <use xlink:href="#mdd6b2b188c" x="54" y="224.36241" style="stroke: #000000; stroke-width: 0.8"/>
      </g>
     </g>
     <g id="text_8">
      <!-- −0.06 -->
      <g transform="translate(16.354687 228.161629)scale(0.1 -0.1)">
       <defs>
        <path id="DejaVuSans-2212" d="M 678 2272 
L 4684 2272 
L 4684 1741 
L 678 1741 
L 678 2272 
z
" transform="scale(0.015625)"/>
        <path id="DejaVuSans-2e" d="M 684 794 
L 1344 794 
L 1344 0 
L 684 0 
L 684 794 
z
" transform="scale(0.015625)"/>
        <path id="DejaVuSans-36" d="M 2113 2584 
Q 1688 2584 1439 2293 
Q 1191 2003 1191 1497 
Q 1191 994 1439 701 
Q 1688 409 2113 409 
Q 2538 409 2786 701 
Q 3034 994 3034 1497 
Q 3034 2003 2786 2293 
Q 2538 2584 2113 2584 
z
M 3366 4563 
L 3366 3988 
Q 3128 4100 2886 4159 
Q 2644 4219 2406 4219 
Q 1781 4219 1451 3797 
Q 1122 3375 1075 2522 
Q 1259 2794 1537 2939 
Q 1816 3084 2150 3084 
Q 2853 3084 3261 2657 
Q 3669 2231 3669 1497 
Q 3669 778 3244 343 
Q 2819 -91 2113 -91 
Q 1303 -91 875 529 
Q 447 1150 447 2328 
Q 447 3434 972 4092 
Q 1497 4750 2381 4750 
Q 2619 4750 2861 4703 
Q 3103 4656 3366 4563 
z
" transform="scale(0.015625)"/>
       </defs>
       <use xlink:href="#DejaVuSans-2212"/>
       <use xlink:href="#DejaVuSans-30" x="83.789062"/>
       <use xlink:href="#DejaVuSans-2e" x="147.412109"/>
       <use xlink:href="#DejaVuSans-30" x="179.199219"/>
       <use xlink:href="#DejaVuSans-36" x="242.822266"/>
      </g>
     </g>
    </g>
    <g id="ytick_2">
     <g id="line2d_8">
      <g>
       <use xlink:href="#mdd6b2b188c" x="54" y="195.992224" style="stroke: #000000; stroke-width: 0.8"/>
      </g>
     </g>
     <g id="text_9">
      <!-- −0.04 -->
      <g transform="translate(16.354687 199.791442)scale(0.1 -0.1)">
       <use xlink:href="#DejaVuSans-2212"/>
       <use xlink:href="#DejaVuSans-30" x="83.789062"/>
       <use xlink:href="#DejaVuSans-2e" x="147.412109"/>
       <use xlink:href="#DejaVuSans-30" x="179.199219"/>
       <use xlink:href="#DejaVuSans-34" x="242.822266"/>
      </g>
     </g>
    </g>
    <g id="ytick_3">
     <g id="line2d_9">
      <g>
       <use xlink:href="#mdd6b2b188c" x="54" y="167.622037" style="stroke: #000000; stroke-width: 0.8"/>
      </g>
     </g>
     <g id="text_10">
      <!-- −0.02 -->
      <g transform="translate(16.354687 171.421256)scale(0.1 -0.1)">
       <use xlink:href="#DejaVuSans-2212"/>
       <use xlink:href="#DejaVuSans-30" x="83.789062"/>
       <use xlink:href="#DejaVuSans-2e" x="147.412109"/>
       <use xlink:href="#DejaVuSans-30" x="179.199219"/>
       <use xlink:href="#DejaVuSans-32" x="242.822266"/>
      </g>
     </g>
    </g>
    <g id="ytick_4">
     <g id="line2d_10">
      <g>
       <use xlink:href="#mdd6b2b188c" x="54" y="139.25185" style="stroke: #000000; stroke-width: 0.8"/>
      </g>
     </g>
     <g id="text_11">
      <!-- 0.00 -->
      <g transform="translate(24.734375 143.051069)scale(0.1 -0.1)">
       <use xlink:href="#DejaVuSans-30"/>
       <use xlink:href="#DejaVuSans-2e" x="63.623047"/>
       <use xlink:href="#DejaVuSans-30" x="95.410156"/>
       <use xlink:href="#DejaVuSans-30" x="159.033203"/>
      </g>
     </g>
    </g>
    <g id="ytick_5">
     <g id="line2d_11">
      <g>
       <use xlink:href="#mdd6b2b188c" x="54" y="110.881664" style="stroke: #000000; stroke-width: 0.8"/>
      </g>
     </g>
     <g id="text_12">
      <!-- 0.02 -->
      <g transform="translate(24.734375 114.680882)scale(0.1 -0.1)">
       <use xlink:href="#DejaVuSans-30"/>
       <use xlink:href="#DejaVuSans-2e" x="63.623047"/>
       <use xlink:href="#DejaVuSans-30" x="95.410156"/>
       <use xlink:href="#DejaVuSans-32" x="159.033203"/>
      </g>
     </g>
    </g>
    <g id="ytick_6">
     <g id="line2d_12">
      <g>
       <use xlink:href="#mdd6b2b188c" x="54" y="82.511477" style="stroke: #000000; stroke-width: 0.8"/>
      </g>
     </g>
     <g id="text_13">
      <!-- 0.04 -->
      <g transform="translate(24.734375 86.310696)scale(0.1 -0.1)">
       <use xlink:href="#DejaVuSans-30"/>
       <use xlink:href="#DejaVuSans-2e" x="63.623047"/>
       <use xlink:href="#DejaVuSans-30" x="95.410156"/>
       <use xlink:href="#DejaVuSans-34" x="159.033203"/>
      </g>
     </g>
    </g>
    <g id="ytick_7">
     <g id="line2d_13">
      <g>
       <use xlink:href="#mdd6b2b188c" x="54" y="54.14129" style="stroke: #000000; stroke-width: 0.8"/>
      </g>
     </g>
     <g id="text_14">
      <!-- 0.06 -->
      <g transform="translate(24.734375 57.940509)scale(0.1 -0.1)">
       <use xlink:href="#DejaVuSans-30"/>
       <use xlink:href="#DejaVuSans-2e" x="63.623047"/>
       <use xlink:href="#DejaVuSans-30" x="95.410156"/>
       <use xlink:href="#DejaVuSans-36" x="159.033203"/>
      </g>
     </g>
    </g>
    <g id="text_15">
     <!-- Position Relative to Mean [$\mu$m] -->
     <g transform="translate(10.254687 220.28)rotate(-90)scale(0.1 -0.1)">
      <defs>
       <path id="DejaVuSans-52" d="M 2841 2188 
Q 3044 2119 3236 1894 
Q 3428 1669 3622 1275 
L 4263 0 
L 3584 0 
L 2988 1197 
Q 2756 1666 2539 1819 
Q 2322 1972 1947 1972 
L 1259 1972 
L 1259 0 
L 628 0 
L 628 4666 
L 2053 4666 
Q 2853 4666 3247 4331 
Q 3641 3997 3641 3322 
Q 3641 2881 3436 2590 
Q 3231 2300 2841 2188 
z
M 1259 4147 
L 1259 2491 
L 2053 2491 
Q 2509 2491 2742 2702 
Q 2975 2913 2975 3322 
Q 2975 3731 2742 3939 
Q 2509 4147 2053 4147 
L 1259 4147 
z
" transform="scale(0.015625)"/>
       <path id="DejaVuSans-76" d="M 191 3500 
L 800 3500 
L 1894 563 
L 2988 3500 
L 3597 3500 
L 2284 0 
L 1503 0 
L 191 3500 
z
" transform="scale(0.015625)"/>
       <path id="DejaVuSans-4d" d="M 628 4666 
L 1569 4666 
L 2759 1491 
L 3956 4666 
L 4897 4666 
L 4897 0 
L 4281 0 
L 4281 4097 
L 3078 897 
L 2444 897 
L 1241 4097 
L 1241 0 
L 628 0 
L 628 4666 
z
" transform="scale(0.015625)"/>
       <path id="DejaVuSans-5b" d="M 550 4863 
L 1875 4863 
L 1875 4416 
L 1125 4416 
L 1125 -397 
L 1875 -397 
L 1875 -844 
L 550 -844 
L 550 4863 
z
" transform="scale(0.015625)"/>
       <path id="DejaVuSans-Oblique-3bc" d="M -84 -1331 
L 856 3500 
L 1434 3500 
L 1009 1322 
Q 997 1256 987 1175 
Q 978 1094 978 1013 
Q 978 722 1161 565 
Q 1344 409 1684 409 
Q 2147 409 2431 671 
Q 2716 934 2816 1459 
L 3213 3500 
L 3788 3500 
L 3266 809 
Q 3253 750 3248 706 
Q 3244 663 3244 628 
Q 3244 531 3283 486 
Q 3322 441 3406 441 
Q 3438 441 3492 456 
Q 3547 472 3647 513 
L 3559 50 
Q 3422 -19 3297 -55 
Q 3172 -91 3053 -91 
Q 2847 -91 2730 40 
Q 2613 172 2613 403 
Q 2438 153 2195 31 
Q 1953 -91 1625 -91 
Q 1334 -91 1117 43 
Q 900 178 831 397 
L 494 -1331 
L -84 -1331 
z
" transform="scale(0.015625)"/>
       <path id="DejaVuSans-5d" d="M 1947 4863 
L 1947 -844 
L 622 -844 
L 622 -397 
L 1369 -397 
L 1369 4416 
L 622 4416 
L 622 4863 
L 1947 4863 
z
" transform="scale(0.015625)"/>
      </defs>
      <use xlink:href="#DejaVuSans-50" transform="translate(0 0.015625)"/>
      <use xlink:href="#DejaVuSans-6f" transform="translate(60.302734 0.015625)"/>
      <use xlink:href="#DejaVuSans-73" transform="translate(121.484375 0.015625)"/>
      <use xlink:href="#DejaVuSans-69" transform="translate(173.583984 0.015625)"/>
      <use xlink:href="#DejaVuSans-74" transform="translate(201.367188 0.015625)"/>
      <use xlink:href="#DejaVuSans-69" transform="translate(240.576172 0.015625)"/>
      <use xlink:href="#DejaVuSans-6f" transform="translate(268.359375 0.015625)"/>
      <use xlink:href="#DejaVuSans-6e" transform="translate(329.541016 0.015625)"/>
      <use xlink:href="#DejaVuSans-20" transform="translate(392.919922 0.015625)"/>
      <use xlink:href="#DejaVuSans-52" transform="translate(424.707031 0.015625)"/>
      <use xlink:href="#DejaVuSans-65" transform="translate(494.189453 0.015625)"/>
      <use xlink:href="#DejaVuSans-6c" transform="translate(555.712891 0.015625)"/>
      <use xlink:href="#DejaVuSans-61" transform="translate(583.496094 0.015625)"/>
      <use xlink:href="#DejaVuSans-74" transform="translate(644.775391 0.015625)"/>
      <use xlink:href="#DejaVuSans-69" transform="translate(683.984375 0.015625)"/>
      <use xlink:href="#DejaVuSans-76" transform="translate(711.767578 0.015625)"/>
      <use xlink:href="#DejaVuSans-65" transform="translate(770.947266 0.015625)"/>
      <use xlink:href="#DejaVuSans-20" transform="translate(832.470703 0.015625)"/>
      <use xlink:href="#DejaVuSans-74" transform="translate(864.257812 0.015625)"/>
      <use xlink:href="#DejaVuSans-6f" transform="translate(903.466797 0.015625)"/>
      <use xlink:href="#DejaVuSans-20" transform="translate(964.648438 0.015625)"/>
      <use xlink:href="#DejaVuSans-4d" transform="translate(996.435547 0.015625)"/>
      <use xlink:href="#DejaVuSans-65" transform="translate(1082.714844 0.015625)"/>
      <use xlink:href="#DejaVuSans-61" transform="translate(1144.238281 0.015625)"/>
      <use xlink:href="#DejaVuSans-6e" transform="translate(1205.517578 0.015625)"/>
      <use xlink:href="#DejaVuSans-20" transform="translate(1268.896484 0.015625)"/>
      <use xlink:href="#DejaVuSans-5b" transform="translate(1300.683594 0.015625)"/>
      <use xlink:href="#DejaVuSans-Oblique-3bc" transform="translate(1339.697266 0.015625)"/>
      <use xlink:href="#DejaVuSans-6d" transform="translate(1403.320312 0.015625)"/>
      <use xlink:href="#DejaVuSans-5d" transform="translate(1500.732422 0.015625)"/>
     </g>
    </g>
   </g>
   <g id="line2d_14">
    <path d="M 69.218182 171.429214 
L 69.766585 135.006123 
L 70.314988 127.037084 
L 70.863391 175.616728 
L 71.411794 170.283432 
L 71.960197 150.573353 
L 73.057002 223.591624 
L 73.605405 186.689307 
L 74.153808 89.644112 
L 74.702211 206.573381 
L 75.250614 114.859576 
L 75.799017 127.617067 
L 76.34742 108.805537 
L 76.895823 149.657659 
L 77.444226 154.867338 
L 77.992629 121.918637 
L 78.541032 149.412331 
L 79.089435 128.504186 
L 79.637838 124.488763 
L 80.186241 170.133146 
L 80.734644 177.679053 
L 81.283047 169.410497 
L 81.83145 153.114904 
L 82.379853 167.669492 
L 82.928256 103.451287 
L 83.476658 173.056976 
L 84.025061 139.688952 
L 84.573464 116.504484 
L 85.121867 101.347052 
L 85.67027 180.477362 
L 86.218673 194.073498 
L 86.767076 138.121943 
L 87.315479 175.918998 
L 87.863882 109.005146 
L 88.412285 161.598308 
L 88.960688 158.42153 
L 89.509091 156.502721 
L 90.057494 170.038954 
L 90.605897 107.857459 
L 91.1543 177.762665 
L 91.702703 189.68151 
L 92.799509 100.302028 
L 93.347912 175.538624 
L 93.896314 172.900976 
L 94.444717 140.012178 
L 94.99312 170.261422 
L 95.541523 153.726216 
L 96.089926 148.692437 
L 97.186732 114.483862 
L 97.735135 101.123529 
L 98.283538 106.812434 
L 98.831941 180.491546 
L 99.380344 168.329278 
L 99.928747 136.458836 
L 100.47715 157.36317 
L 101.025553 158.199911 
L 101.573956 163.828913 
L 102.122359 180.240503 
L 102.670762 109.193325 
L 103.219165 102.721867 
L 103.767568 112.484195 
L 104.315971 161.842581 
L 104.864373 103.494895 
L 105.412776 133.085203 
L 105.961179 169.62429 
L 106.509582 95.761659 
L 107.057985 179.983745 
L 107.606388 185.133521 
L 108.154791 162.428279 
L 108.703194 84.012999 
L 109.251597 170.032183 
L 109.8 101.321233 
L 110.348403 119.70963 
L 110.896806 180.569443 
L 111.445209 141.510609 
L 111.993612 164.990784 
L 112.542015 150.432386 
L 113.090418 100.351351 
L 113.638821 133.895275 
L 114.187224 154.6199 
L 114.735627 148.148442 
L 115.284029 114.420998 
L 115.832432 186.782238 
L 116.380835 155.990055 
L 116.929238 169.106965 
L 117.477641 146.102206 
L 118.026044 128.069418 
L 118.574447 169.221057 
L 119.12285 97.934266 
L 119.671253 161.549629 
L 120.219656 161.84724 
L 120.768059 179.217282 
L 121.316462 91.516996 
L 121.864865 152.556519 
L 122.413268 185.561314 
L 122.961671 161.538199 
L 123.510074 191.008701 
L 124.058477 90.549019 
L 124.60688 145.358602 
L 125.155283 97.374182 
L 125.703686 98.210922 
L 126.252088 173.267809 
L 126.800491 86.885395 
L 127.348894 135.285329 
L 127.897297 84.485455 
L 128.4457 84.004324 
L 128.994103 118.68641 
L 129.542506 71.660441 
L 130.090909 164.508598 
L 130.639312 192.960744 
L 131.187715 144.257484 
L 131.736118 161.447817 
L 132.284521 160.786976 
L 132.832924 137.422797 
L 133.381327 88.240311 
L 133.92973 153.473062 
L 134.478133 140.232536 
L 135.026536 139.691501 
L 135.574939 60.138059 
L 136.123342 51.390278 
L 136.671744 195.33592 
L 137.220147 168.317643 
L 137.76855 115.241444 
L 138.316953 136.565102 
L 139.413759 91.873456 
L 139.962162 182.744805 
L 140.510565 103.550783 
L 141.058968 133.50051 
L 142.155774 95.15861 
L 142.704177 141.162414 
L 143.25258 166.49959 
L 143.800983 160.207842 
L 144.349386 159.367292 
L 144.897789 107.189642 
L 145.446192 133.605077 
L 145.994595 111.199351 
L 146.542998 122.938486 
L 147.0914 125.991648 
L 147.639803 135.334652 
L 148.188206 182.71623 
L 148.736609 71.713574 
L 149.285012 144.194621 
L 149.833415 157.251628 
L 150.381818 155.991754 
L 150.930221 133.346415 
L 151.478624 188.335708 
L 152.027027 142.268191 
L 152.57543 129.027665 
L 153.123833 110.815167 
L 153.672236 180.48076 
L 154.220639 125.90698 
L 154.769042 152.082802 
L 155.317445 190.83831 
L 155.865848 109.188254 
L 156.414251 172.324391 
L 156.962654 133.32546 
L 157.511057 183.702202 
L 158.059459 188.612365 
L 158.607862 96.119817 
L 159.156265 137.930392 
L 159.704668 150.987399 
L 160.253071 103.122785 
L 160.801474 114.382694 
L 161.349877 147.147875 
L 161.89828 134.027155 
L 162.446683 80.29202 
L 162.995086 137.857154 
L 163.543489 114.552879 
L 164.640295 181.580823 
L 165.188698 171.095847 
L 165.737101 155.399286 
L 166.285504 173.667877 
L 166.833907 130.176201 
L 167.38231 127.838069 
L 167.930713 116.75406 
L 168.479115 156.887343 
L 169.027518 210.558764 
L 169.575921 145.142493 
L 170.124324 162.093212 
L 170.672727 73.134957 
L 171.22113 115.065339 
L 171.769533 70.375597 
L 172.317936 174.964794 
L 172.866339 151.960035 
L 173.414742 117.813269 
L 173.963145 139.256733 
L 174.511548 126.914755 
L 175.059951 133.622016 
L 175.608354 142.006568 
L 176.156757 145.479053 
L 176.70516 68.082129 
L 177.253563 139.425013 
L 177.801966 108.872443 
L 178.350369 196.509016 
L 178.898771 121.448319 
L 179.447174 182.128422 
L 179.995577 94.248426 
L 180.54398 146.002943 
L 181.092383 164.630953 
L 181.640786 97.118068 
L 182.189189 161.032947 
L 182.737592 113.10843 
L 183.285995 109.452426 
L 183.834398 52.662225 
L 184.382801 112.803199 
L 185.479607 179.172207 
L 186.02801 113.336613 
L 186.576413 145.742375 
L 187.124816 171.438971 
L 187.673219 79.60536 
L 188.221622 153.224568 
L 188.770025 151.665179 
L 189.318428 216.119188 
L 189.86683 143.754138 
L 190.415233 130.034385 
L 190.963636 119.309795 
L 191.512039 141.292389 
L 192.060442 132.125284 
L 192.608845 102.830682 
L 193.157248 153.387134 
L 193.705651 139.487671 
L 194.254054 132.7766 
L 194.802457 132.894502 
L 195.35086 173.267398 
L 195.899263 156.792095 
L 196.447666 219.988135 
L 196.996069 144.927438 
L 197.544472 201.414313 
L 198.092875 154.927474 
L 198.641278 96.639691 
L 199.189681 144.440593 
L 199.738084 73.333511 
L 200.286486 144.676396 
L 200.834889 114.123825 
L 201.383292 118.494859 
L 201.931695 102.678492 
L 202.480098 95.667904 
L 203.028501 137.418576 
L 203.576904 115.551979 
L 204.125307 87.575249 
L 204.67371 92.365605 
L 205.222113 157.538453 
L 205.770516 158.135581 
L 206.318919 139.982986 
L 206.867322 116.618808 
L 207.415725 130.095138 
L 207.964128 146.626534 
L 208.512531 184.363687 
L 209.060934 118.10877 
L 209.609337 124.696224 
L 210.15774 186.634296 
L 210.706143 118.522378 
L 211.254545 104.862528 
L 212.351351 170.75231 
L 212.899754 96.530259 
L 213.448157 131.152442 
L 213.99656 124.141855 
L 214.544963 95.865608 
L 215.093366 95.264671 
L 215.641769 150.37377 
L 216.190172 175.830753 
L 216.738575 186.431726 
L 217.286978 162.528418 
L 217.835381 108.553671 
L 218.383784 152.580666 
L 218.932187 154.735279 
L 219.48059 117.23393 
L 220.028993 180.549777 
L 220.577396 166.350798 
L 221.125799 89.373196 
L 222.222604 185.574031 
L 222.771007 106.679525 
L 223.31941 160.291043 
L 223.867813 186.107446 
L 224.416216 70.013012 
L 224.964619 124.343369 
L 225.513022 152.915322 
L 226.061425 133.444855 
L 226.609828 173.158816 
L 227.158231 147.937636 
L 227.706634 100.552248 
L 228.255037 116.424708 
L 228.80344 106.478861 
L 229.351843 120.733933 
L 229.900246 185.187942 
L 230.448649 127.918515 
L 230.997052 151.877917 
L 231.545455 218.60825 
L 232.093857 156.306948 
L 232.64226 199.016072 
L 233.190663 179.246089 
L 233.739066 111.493591 
L 234.287469 114.906172 
L 234.835872 92.320736 
L 235.384275 118.436655 
L 235.932678 150.782513 
L 236.481081 193.73125 
L 237.029484 134.604821 
L 237.577887 120.405843 
L 238.12629 94.465824 
L 238.674693 142.925661 
L 239.223096 90.628205 
L 239.771499 159.754668 
L 240.319902 144.357624 
L 241.416708 96.790621 
L 241.965111 96.30949 
L 242.513514 155.791528 
L 243.061916 148.780941 
L 243.610319 88.69606 
L 244.158722 145.482451 
L 244.707125 186.514283 
L 245.255528 164.947203 
L 245.803931 76.228561 
L 246.352334 113.606294 
L 246.900737 135.648791 
L 247.44914 121.689425 
L 247.997543 136.244014 
L 248.545946 117.132967 
L 249.094349 119.766806 
L 249.642752 91.849979 
L 250.191155 77.890613 
L 250.739558 166.904961 
L 251.287961 165.884701 
L 251.836364 129.341804 
L 252.384767 128.860672 
L 253.481572 79.077249 
L 254.029975 119.689758 
L 254.578378 134.543863 
L 255.126781 179.349601 
L 255.675184 150.474322 
L 256.223587 44.443636 
L 256.77199 139.388408 
L 257.320393 165.624133 
L 257.868796 103.203025 
L 258.417199 133.09285 
L 258.965602 127.579844 
L 259.514005 48.984855 
L 260.062408 111.462056 
L 260.610811 48.981045 
L 261.159214 163.394378 
L 261.707617 157.402146 
L 262.25602 128.047641 
L 262.804423 220.536378 
L 263.352826 117.02163 
L 263.901229 130.737573 
L 264.449631 167.45637 
L 264.998034 82.81115 
L 265.546437 179.133697 
L 266.09484 105.271065 
L 266.643243 115.572522 
L 267.191646 143.605345 
L 267.740049 137.852727 
L 268.288452 87.771692 
L 268.836855 80.880911 
L 269.385258 103.642247 
L 269.933661 104.478988 
L 270.482064 93.215269 
L 271.030467 62.542892 
L 271.57887 131.968872 
L 272.127273 117.650087 
L 272.675676 145.68291 
L 273.224079 159.15924 
L 273.772482 143.10326 
L 274.320885 107.758428 
L 274.869287 133.035701 
L 275.41769 124.407726 
L 275.966093 128.359436 
L 276.514496 119.671558 
L 277.062899 135.184599 
L 277.611302 153.872513 
L 278.159705 144.405892 
L 278.708108 174.715039 
L 279.256511 164.829096 
L 279.804914 203.88412 
L 280.353317 161.590509 
L 280.90172 131.457262 
L 281.450123 123.008996 
L 281.998526 133.789679 
L 282.546929 77.119285 
L 283.095332 100.24004 
L 283.643735 146.54336 
L 284.192138 138.154998 
L 284.740541 95.681677 
L 285.288943 190.207126 
L 285.837346 179.841956 
L 286.385749 115.204427 
L 286.934152 131.376404 
L 287.482555 84.410339 
L 288.030958 138.680792 
L 288.579361 111.362998 
L 289.127764 62.300319 
L 289.676167 206.665284 
L 290.22457 113.393994 
L 290.772973 134.418136 
L 291.321376 159.935022 
L 291.869779 196.234496 
L 292.418182 157.295468 
L 292.966585 126.503285 
L 293.514988 152.139978 
L 294.063391 143.571906 
L 294.611794 163.158369 
L 295.160197 145.784517 
L 295.7086 176.273374 
L 296.257002 95.76148 
L 296.805405 139.309249 
L 297.353808 171.056075 
L 297.902211 146.194315 
L 298.450614 130.917077 
L 298.999017 74.426392 
L 299.54742 66.337547 
L 300.644226 152.594439 
L 301.192629 148.099789 
L 301.741032 125.81387 
L 302.289435 173.794481 
L 302.837838 144.859298 
L 303.386241 178.642835 
L 303.934644 163.485404 
L 304.483047 199.844781 
L 305.03145 195.050615 
L 305.579853 208.946268 
L 306.128256 128.254664 
L 306.676658 99.079869 
L 307.225061 112.196779 
L 307.773464 111.236422 
L 308.321867 106.202642 
L 308.87027 124.890556 
L 309.418673 167.539776 
L 309.967076 158.372672 
L 310.515479 171.070259 
L 311.063882 92.834689 
L 311.612285 154.293535 
L 312.160688 120.685898 
L 312.709091 107.804791 
L 313.257494 104.867626 
L 313.805897 179.32548 
L 314.3543 153.026042 
L 314.902703 169.856954 
L 315.451106 109.592364 
L 315.999509 114.802043 
L 316.547912 123.486112 
L 317.096314 166.195235 
L 317.644717 147.203995 
L 318.19312 175.296722 
L 318.741523 154.62819 
L 319.289926 160.317095 
L 319.838329 182.599205 
L 320.386732 180.20117 
L 320.935135 170.075613 
L 321.483538 139.582946 
L 322.031941 127.540484 
L 322.580344 175.640902 
L 323.67715 70.746473 
L 324.225553 165.631341 
L 324.773956 79.189024 
L 325.322359 111.474979 
L 325.870762 97.515613 
L 326.419165 104.282778 
L 326.967568 184.850765 
L 327.515971 163.703007 
L 328.064373 105.774644 
L 328.612776 171.247009 
L 329.161179 114.217195 
L 329.709582 112.478095 
L 330.257985 193.465405 
L 330.806388 123.915809 
L 331.354791 106.362247 
L 331.903194 81.680197 
L 332.451597 134.453069 
L 333 121.811575 
L 333.548403 177.160287 
L 334.096806 160.325565 
L 334.645209 151.038654 
L 335.193612 193.867584 
L 335.742015 118.147951 
L 336.290418 128.629117 
L 336.838821 172.656113 
L 337.387224 154.204002 
L 337.935627 111.311359 
L 339.032432 147.908444 
L 339.580835 134.967434 
L 340.129238 117.833195 
L 340.677641 140.834144 
L 341.774447 169.344289 
L 342.32285 137.653556 
L 342.871253 135.854553 
L 343.419656 130.221741 
L 343.968059 128.542545 
L 344.516462 124.287508 
L 345.064865 123.926183 
L 345.613268 162.322272 
L 346.161671 229.471928 
L 346.710074 189.095222 
L 347.258477 135.899217 
L 347.80688 225.75221 
L 348.355283 183.758116 
L 348.903686 178.60453 
L 349.452088 189.864439 
L 350.000491 158.473223 
L 350.548894 210.107933 
L 351.097297 159.907092 
L 351.6457 140.975755 
L 352.742506 45.306429 
L 353.290909 153.729435 
L 353.839312 171.398994 
L 354.387715 141.565263 
L 354.936118 53.864977 
L 355.484521 144.736326 
L 356.032924 147.669681 
L 356.581327 111.845623 
L 357.12973 134.547056 
L 357.678133 138.259153 
L 358.226536 143.04951 
L 358.774939 144.125863 
L 359.323342 153.768384 
L 359.871744 88.412016 
L 360.420147 154.60322 
L 360.96855 146.634181 
L 361.516953 185.090172 
L 362.065356 207.252476 
L 362.613759 130.574391 
L 363.162162 220.247674 
L 363.710565 126.377352 
L 364.258968 155.488434 
L 364.807371 166.089407 
L 365.355774 132.302061 
L 365.904177 115.886661 
L 366.45258 153.324297 
L 367.000983 159.252815 
L 367.549386 199.865324 
L 368.097789 136.006538 
L 368.646192 189.078927 
L 369.194595 111.622099 
L 369.742998 71.964232 
L 370.2914 162.595968 
L 370.839803 126.112975 
L 371.388206 112.992254 
L 371.936609 166.783482 
L 372.485012 140.663753 
L 373.033415 123.349805 
L 373.581818 146.590367 
L 373.581818 146.590367 
" clip-path="url(#p0a66e4d6f8)" style="fill: none; stroke: #1f77b4; stroke-width: 1.5; stroke-linecap: square"/>
   </g>
   <g id="line2d_15">
    <path d="M 69.218182 86.775459 
L 69.766585 99.521329 
L 70.314988 141.140573 
L 70.863391 144.421727 
L 71.411794 115.77444 
L 71.960197 152.661325 
L 72.5086 154.684511 
L 73.057002 131.668131 
L 73.605405 118.236273 
L 74.153808 139.428503 
L 74.702211 72.742643 
L 75.250614 124.245925 
L 75.799017 145.318349 
L 76.34742 122.002453 
L 76.895823 116.35802 
L 77.444226 129.702922 
L 77.992629 104.829541 
L 78.541032 167.83425 
L 79.089435 135.413058 
L 79.637838 130.128045 
L 80.186241 139.159912 
L 80.734644 121.355116 
L 81.283047 117.328071 
L 81.83145 106.531957 
L 82.379853 160.9705 
L 82.928256 140.410154 
L 83.476658 94.271113 
L 84.025061 117.739668 
L 84.573464 109.579298 
L 85.121867 121.786038 
L 85.67027 126.385064 
L 86.218673 91.268224 
L 86.767076 162.359874 
L 87.315479 128.680713 
L 87.863882 151.071009 
L 88.412285 113.438232 
L 88.960688 153.320281 
L 89.509091 154.804337 
L 90.057494 155.928973 
L 91.1543 119.001509 
L 91.702703 108.025686 
L 92.251106 119.39378 
L 92.799509 152.267147 
L 93.347912 112.897176 
L 93.896314 109.828583 
L 94.444717 122.33484 
L 94.99312 142.209198 
L 95.541523 201.200389 
L 96.089926 156.55893 
L 96.638329 186.91636 
L 97.186732 152.578263 
L 97.735135 131.778304 
L 98.283538 146.021755 
L 98.831941 184.526029 
L 99.380344 140.723216 
L 99.928747 184.678687 
L 100.47715 108.168691 
L 101.025553 104.081743 
L 101.573956 105.745508 
L 102.122359 162.041052 
L 102.670762 129.979279 
L 103.767568 117.851768 
L 104.315971 142.758 
L 104.864373 126.390883 
L 105.412776 170.286451 
L 105.961179 150.325137 
L 106.509582 171.038141 
L 107.057985 127.534844 
L 107.606388 123.627606 
L 108.154791 91.805446 
L 108.703194 152.593735 
L 109.251597 140.240136 
L 109.8 168.920275 
L 110.348403 115.473036 
L 110.896806 121.449836 
L 111.445209 123.952248 
L 111.993612 101.774513 
L 112.542015 89.540721 
L 113.090418 165.604343 
L 113.638821 141.929027 
L 114.187224 146.947375 
L 114.735627 138.128069 
L 115.284029 118.226659 
L 115.832432 90.777438 
L 116.380835 149.828532 
L 116.929238 107.583204 
L 117.477641 157.289388 
L 118.026044 170.095161 
L 118.574447 125.873025 
L 119.12285 160.004361 
L 119.671253 158.792769 
L 120.219656 107.921371 
L 120.768059 90.296285 
L 121.316462 136.468177 
L 121.864865 144.901011 
L 122.413268 52.69636 
L 122.961671 186.14731 
L 123.510074 125.092356 
L 124.058477 125.737766 
L 124.60688 167.35701 
L 125.155283 143.022758 
L 125.703686 127.614093 
L 126.252088 119.393819 
L 126.800491 139.387984 
L 127.348894 127.393805 
L 127.897297 135.527123 
L 128.4457 160.852679 
L 128.994103 158.0237 
L 129.542506 165.378275 
L 130.090909 105.521387 
L 130.639312 93.227692 
L 131.736118 151.007291 
L 132.284521 142.727115 
L 132.832924 144.39088 
L 133.381327 139.944512 
L 133.92973 126.153235 
L 134.478133 149.501983 
L 135.026536 105.51946 
L 135.574939 148.216963 
L 136.123342 175.878746 
L 136.671744 83.314674 
L 137.220147 190.468091 
L 137.76855 140.135822 
L 138.316953 150.605367 
L 138.865356 113.871139 
L 139.413759 136.920371 
L 139.962162 114.083701 
L 140.510565 181.700962 
L 141.058968 164.914521 
L 141.607371 135.907815 
L 142.155774 169.320311 
L 142.704177 129.171597 
L 143.25258 130.296233 
L 143.800983 129.683675 
L 144.349386 151.415034 
L 144.897789 97.728182 
L 145.446192 195.956012 
L 145.994595 118.547467 
L 146.542998 140.817956 
L 147.639803 150.61504 
L 148.188206 112.982263 
L 148.736609 176.945425 
L 149.833415 133.069182 
L 150.381818 116.162936 
L 150.930221 158.501019 
L 151.478624 102.897262 
L 152.027027 137.028598 
L 152.57543 110.537828 
L 153.123833 157.967689 
L 153.672236 141.181248 
L 154.220639 119.303031 
L 154.769042 141.03439 
L 155.317445 133.23344 
L 155.865848 156.522284 
L 156.414251 106.848951 
L 156.962654 129.718472 
L 157.511057 109.817062 
L 158.059459 116.033476 
L 158.607862 126.802538 
L 159.156265 139.967731 
L 159.704668 148.999598 
L 160.253071 116.937825 
L 160.801474 108.118519 
L 161.349877 122.062454 
L 162.446683 191.34348 
L 162.995086 107.105963 
L 163.543489 145.730043 
L 164.640295 79.629689 
L 165.188698 169.051739 
L 165.737101 159.453691 
L 166.285504 135.898181 
L 166.833907 146.307824 
L 167.38231 139.046003 
L 167.930713 144.843094 
L 168.479115 186.402434 
L 169.027518 113.306924 
L 169.575921 140.729094 
L 170.124324 129.094334 
L 170.672727 159.571571 
L 171.22113 156.443075 
L 171.769533 174.101012 
L 172.317936 146.172565 
L 172.866339 136.275 
L 173.414742 136.680797 
L 174.511548 210.694181 
L 175.059951 149.759034 
L 175.608354 117.577455 
L 176.156757 149.13295 
L 176.70516 170.984116 
L 177.253563 93.395861 
L 177.801966 125.670195 
L 178.350369 81.507962 
L 178.898771 122.707883 
L 179.447174 149.171601 
L 179.995577 146.821848 
L 180.54398 114.340752 
L 181.092383 129.602558 
L 181.640786 106.106952 
L 182.189189 119.092435 
L 182.737592 115.364907 
L 183.285995 109.960087 
L 183.834398 143.192873 
L 184.382801 135.032503 
L 184.931204 98.058663 
L 186.576413 185.177336 
L 187.124816 167.851767 
L 187.673219 186.52806 
L 188.221622 139.550373 
L 188.770025 121.745578 
L 189.318428 145.453745 
L 189.86683 176.170594 
L 190.415233 165.853707 
L 190.963636 116.360083 
L 191.512039 108.49923 
L 192.060442 202.354121 
L 192.608845 242.116364 
L 193.157248 108.638362 
L 193.705651 182.006336 
L 194.254054 156.953245 
L 194.802457 119.020952 
L 195.35086 113.556229 
L 195.899263 134.149427 
L 196.447666 94.659649 
L 196.996069 104.889581 
L 197.544472 112.543673 
L 198.092875 118.400667 
L 198.641278 153.789971 
L 199.189681 118.912745 
L 199.738084 205.159922 
L 200.286486 143.685645 
L 200.834889 133.189048 
L 201.383292 195.714531 
L 201.931695 135.857643 
L 202.480098 157.049873 
L 203.028501 166.920386 
L 203.576904 143.24507 
L 204.125307 142.332995 
L 204.67371 202.642058 
L 205.222113 168.363864 
L 205.770516 155.111716 
L 206.318919 136.408371 
L 206.867322 163.650831 
L 207.415725 197.183134 
L 207.964128 86.58818 
L 208.512531 75.732163 
L 209.060934 133.465385 
L 209.609337 112.00649 
L 210.15774 141.165855 
L 210.706143 103.952401 
L 211.254545 138.203543 
L 211.802948 104.344672 
L 212.351351 119.067349 
L 212.899754 122.2886 
L 213.448157 126.707915 
L 213.99656 161.19867 
L 214.544963 205.753174 
L 215.093366 146.675028 
L 215.641769 178.649846 
L 216.190172 87.64326 
L 216.738575 136.331089 
L 217.286978 145.782279 
L 217.835381 163.739733 
L 218.383784 131.977476 
L 218.932187 149.036381 
L 219.48059 155.013181 
L 220.028993 110.791045 
L 220.577396 112.634521 
L 221.125799 183.546461 
L 221.674201 137.048001 
L 222.222604 180.104924 
L 222.771007 131.030623 
L 223.31941 138.804522 
L 223.867813 150.951359 
L 224.416216 146.624798 
L 224.964619 145.233497 
L 225.513022 110.595883 
L 226.061425 157.247001 
L 226.609828 169.274032 
L 227.158231 147.87504 
L 227.706634 165.053751 
L 228.255037 191.337759 
L 228.80344 142.562975 
L 229.351843 123.739823 
L 229.900246 161.405452 
L 230.448649 119.339833 
L 230.997052 128.431604 
L 231.545455 142.615152 
L 232.093857 161.351348 
L 232.64226 122.760119 
L 233.190663 76.321562 
L 233.739066 213.067192 
L 234.287469 177.231513 
L 234.835872 128.097309 
L 235.384275 145.216117 
L 235.932678 135.618069 
L 236.481081 147.345583 
L 237.029484 179.560014 
L 237.577887 199.614082 
L 238.12629 171.326215 
L 238.674693 135.610343 
L 239.223096 141.52724 
L 239.771499 112.28092 
L 240.319902 122.331143 
L 240.868305 113.75145 
L 241.965111 168.7755 
L 242.513514 100.711864 
L 243.061916 130.949487 
L 243.610319 206.294269 
L 244.158722 131.820984 
L 244.707125 145.285693 
L 245.803931 176.887566 
L 246.900737 118.335023 
L 247.44914 116.883819 
L 247.997543 151.614187 
L 248.545946 118.294445 
L 249.094349 137.449965 
L 249.642752 168.586137 
L 250.191155 170.429612 
L 250.739558 79.303219 
L 251.287961 181.544568 
L 251.836364 95.390146 
L 252.384767 133.295387 
L 252.93317 151.492454 
L 253.481572 123.024877 
L 254.029975 172.132029 
L 254.578378 165.64895 
L 255.126781 96.027829 
L 255.675184 90.143783 
L 256.223587 194.901069 
L 256.77199 79.753467 
L 257.320393 118.97658 
L 257.868796 126.151446 
L 258.417199 155.909843 
L 258.965602 146.731117 
L 260.062408 123.221985 
L 260.610811 204.017965 
L 261.159214 124.812322 
L 261.707617 128.452895 
L 262.25602 140.300216 
L 262.804423 101.888696 
L 263.352826 151.834494 
L 263.901229 97.428803 
L 264.449631 104.304153 
L 264.998034 202.052756 
L 265.546437 103.857778 
L 266.09484 152.905027 
L 267.191646 166.236403 
L 267.740049 130.460628 
L 268.288452 120.922482 
L 268.836855 118.872245 
L 269.385258 125.088659 
L 269.933661 146.640309 
L 270.482064 183.467291 
L 271.030467 170.87408 
L 271.57887 103.828799 
L 272.127273 154.433533 
L 272.675676 110.750526 
L 273.224079 143.264474 
L 273.772482 135.0442 
L 274.320885 164.203565 
L 274.869287 122.916689 
L 275.41769 98.881953 
L 275.966093 211.187051 
L 276.514496 223.273985 
L 277.062899 156.827737 
L 278.159705 109.776622 
L 278.708108 155.828707 
L 279.256511 191.757141 
L 279.804914 114.947628 
L 280.353317 136.559181 
L 281.998526 149.337902 
L 282.546929 191.675985 
L 283.095332 204.182242 
L 283.643735 123.479017 
L 284.192138 168.93207 
L 284.740541 131.419099 
L 285.288943 127.212345 
L 285.837346 140.736957 
L 286.385749 117.361157 
L 286.934152 161.077015 
L 287.482555 130.752437 
L 288.030958 181.956203 
L 288.579361 168.704056 
L 289.127764 194.808354 
L 289.676167 83.015334 
L 290.22457 195.080818 
L 290.772973 170.387147 
L 291.321376 80.219206 
L 291.869779 94.822077 
L 292.418182 138.597838 
L 292.966585 122.110914 
L 293.514988 127.728295 
L 294.063391 171.863476 
L 294.611794 137.225863 
L 295.160197 83.059785 
L 295.7086 128.273224 
L 296.257002 136.166929 
L 296.805405 135.015242 
L 297.353808 142.78914 
L 297.902211 119.113824 
L 298.450614 164.746587 
L 298.999017 157.305056 
L 299.54742 139.380454 
L 300.095823 181.41902 
L 300.644226 192.547502 
L 301.192629 120.110928 
L 301.741032 151.546616 
L 302.289435 73.359328 
L 302.837838 144.570786 
L 303.386241 183.134963 
L 303.934644 91.529344 
L 304.483047 125.540873 
L 305.03145 128.3428 
L 305.579853 134.319601 
L 306.128256 130.711879 
L 306.676658 152.023916 
L 307.225061 95.042384 
L 307.773464 151.038412 
L 308.321867 158.81231 
L 308.87027 150.172714 
L 309.418673 164.835488 
L 309.967076 107.195021 
L 310.515479 140.787227 
L 311.063882 142.391089 
L 311.612285 98.468469 
L 312.160688 103.786334 
L 312.709091 154.391068 
L 313.257494 138.56308 
L 313.805897 166.164959 
L 314.3543 132.425895 
L 314.902703 134.988209 
L 315.451106 144.619109 
L 315.999509 120.404664 
L 316.547912 143.873218 
L 317.096314 122.474226 
L 317.644717 82.325512 
L 318.19312 149.523451 
L 318.741523 134.234592 
L 319.289926 141.050038 
L 319.838329 127.318665 
L 320.386732 138.926372 
L 320.935135 134.899327 
L 321.483538 148.723456 
L 322.031941 151.345674 
L 322.580344 71.780611 
L 323.128747 98.783458 
L 323.67715 143.936994 
L 324.225553 149.015246 
L 324.773956 216.932023 
L 325.322359 210.568751 
L 325.870762 129.446204 
L 326.419165 113.678119 
L 326.967568 156.914751 
L 327.515971 145.399798 
L 328.064373 183.245136 
L 328.612776 145.193036 
L 329.161179 172.375593 
L 329.709582 164.993965 
L 330.257985 109.210499 
L 330.806388 93.981544 
L 331.903194 143.973719 
L 332.451597 195.417098 
L 333 113.635614 
L 333.548403 116.916768 
L 334.096806 156.918624 
L 334.645209 115.571844 
L 335.193612 107.351571 
L 335.742015 118.120633 
L 336.290418 112.775716 
L 336.838821 88.740981 
L 337.387224 132.037516 
L 337.935627 141.967932 
L 338.484029 124.462653 
L 339.032432 121.154447 
L 339.580835 155.765009 
L 340.129238 172.164978 
L 340.677641 102.723567 
L 341.226044 137.573742 
L 341.774447 83.767083 
L 342.32285 122.51097 
L 342.871253 98.296525 
L 343.419656 156.089651 
L 343.968059 134.331239 
L 344.516462 119.641413 
L 345.064865 204.990041 
L 345.613268 150.883866 
L 346.161671 138.76988 
L 346.710074 104.491687 
L 347.258477 177.560145 
L 347.80688 164.068384 
L 348.355283 139.434616 
L 348.903686 140.139929 
L 349.452088 128.32546 
L 350.000491 150.536046 
L 350.548894 98.945808 
L 351.097297 99.171895 
L 351.6457 126.474258 
L 352.194103 138.680999 
L 352.742506 153.942806 
L 353.290909 96.422144 
L 353.839312 118.932246 
L 354.387715 130.240438 
L 354.936118 164.551483 
L 355.484521 127.218223 
L 356.032924 104.381553 
L 356.581327 135.158305 
L 357.12973 156.290632 
L 358.226536 118.524523 
L 358.774939 166.793029 
L 359.323342 121.852054 
L 359.871744 138.311926 
L 360.420147 88.39898 
L 360.96855 129.479094 
L 361.516953 103.287841 
L 362.065356 145.865537 
L 362.613759 137.046231 
L 363.162162 112.472366 
L 363.710565 154.151513 
L 364.807371 108.358367 
L 365.355774 182.684793 
L 365.904177 141.63753 
L 366.45258 119.519699 
L 367.000983 147.061676 
L 367.549386 86.905271 
L 368.097789 110.194116 
L 368.646192 147.320614 
L 369.194595 148.98438 
L 369.742998 194.976562 
L 370.2914 107.504268 
L 371.388206 172.771776 
L 372.485012 99.243417 
L 373.033415 157.336059 
L 373.581818 111.915858 
L 373.581818 111.915858 
" clip-path="url(#p0a66e4d6f8)" style="fill: none; stroke: #ff7f0e; stroke-width: 1.5; stroke-linecap: square"/>
   </g>
   <g id="patch_3">
    <path d="M 54 252 
L 54 34.56 
" style="fill: none; stroke: #000000; stroke-width: 0.8; stroke-linejoin: miter; stroke-linecap: square"/>
   </g>
   <g id="patch_4">
    <path d="M 388.8 252 
L 388.8 34.56 
" style="fill: none; stroke: #000000; stroke-width: 0.8; stroke-linejoin: miter; stroke-linecap: square"/>
   </g>
   <g id="patch_5">
    <path d="M 54 252 
L 388.8 252 
" style="fill: none; stroke: #000000; stroke-width: 0.8; stroke-linejoin: miter; stroke-linecap: square"/>
   </g>
   <g id="patch_6">
    <path d="M 54 34.56 
L 388.8 34.56 
" style="fill: none; stroke: #000000; stroke-width: 0.8; stroke-linejoin: miter; stroke-linecap: square"/>
   </g>
   <g id="text_16">
    <!-- Sample D Trapped (Strong) Time Series -->
    <g transform="translate(103.115625 28.56)scale(0.12 -0.12)">
     <defs>
      <path id="DejaVuSans-53" d="M 3425 4513 
L 3425 3897 
Q 3066 4069 2747 4153 
Q 2428 4238 2131 4238 
Q 1616 4238 1336 4038 
Q 1056 3838 1056 3469 
Q 1056 3159 1242 3001 
Q 1428 2844 1947 2747 
L 2328 2669 
Q 3034 2534 3370 2195 
Q 3706 1856 3706 1288 
Q 3706 609 3251 259 
Q 2797 -91 1919 -91 
Q 1588 -91 1214 -16 
Q 841 59 441 206 
L 441 856 
Q 825 641 1194 531 
Q 1563 422 1919 422 
Q 2459 422 2753 634 
Q 3047 847 3047 1241 
Q 3047 1584 2836 1778 
Q 2625 1972 2144 2069 
L 1759 2144 
Q 1053 2284 737 2584 
Q 422 2884 422 3419 
Q 422 4038 858 4394 
Q 1294 4750 2059 4750 
Q 2388 4750 2728 4690 
Q 3069 4631 3425 4513 
z
" transform="scale(0.015625)"/>
      <path id="DejaVuSans-44" d="M 1259 4147 
L 1259 519 
L 2022 519 
Q 2988 519 3436 956 
Q 3884 1394 3884 2338 
Q 3884 3275 3436 3711 
Q 2988 4147 2022 4147 
L 1259 4147 
z
M 628 4666 
L 1925 4666 
Q 3281 4666 3915 4102 
Q 4550 3538 4550 2338 
Q 4550 1131 3912 565 
Q 3275 0 1925 0 
L 628 0 
L 628 4666 
z
" transform="scale(0.015625)"/>
      <path id="DejaVuSans-64" d="M 2906 2969 
L 2906 4863 
L 3481 4863 
L 3481 0 
L 2906 0 
L 2906 525 
Q 2725 213 2448 61 
Q 2172 -91 1784 -91 
Q 1150 -91 751 415 
Q 353 922 353 1747 
Q 353 2572 751 3078 
Q 1150 3584 1784 3584 
Q 2172 3584 2448 3432 
Q 2725 3281 2906 2969 
z
M 947 1747 
Q 947 1113 1208 752 
Q 1469 391 1925 391 
Q 2381 391 2643 752 
Q 2906 1113 2906 1747 
Q 2906 2381 2643 2742 
Q 2381 3103 1925 3103 
Q 1469 3103 1208 2742 
Q 947 2381 947 1747 
z
" transform="scale(0.015625)"/>
      <path id="DejaVuSans-67" d="M 2906 1791 
Q 2906 2416 2648 2759 
Q 2391 3103 1925 3103 
Q 1463 3103 1205 2759 
Q 947 2416 947 1791 
Q 947 1169 1205 825 
Q 1463 481 1925 481 
Q 2391 481 2648 825 
Q 2906 1169 2906 1791 
z
M 3481 434 
Q 3481 -459 3084 -895 
Q 2688 -1331 1869 -1331 
Q 1566 -1331 1297 -1286 
Q 1028 -1241 775 -1147 
L 775 -588 
Q 1028 -725 1275 -790 
Q 1522 -856 1778 -856 
Q 2344 -856 2625 -561 
Q 2906 -266 2906 331 
L 2906 616 
Q 2728 306 2450 153 
Q 2172 0 1784 0 
Q 1141 0 747 490 
Q 353 981 353 1791 
Q 353 2603 747 3093 
Q 1141 3584 1784 3584 
Q 2172 3584 2450 3431 
Q 2728 3278 2906 2969 
L 2906 3500 
L 3481 3500 
L 3481 434 
z
" transform="scale(0.015625)"/>
     </defs>
     <use xlink:href="#DejaVuSans-53"/>
     <use xlink:href="#DejaVuSans-61" x="63.476562"/>
     <use xlink:href="#DejaVuSans-6d" x="124.755859"/>
     <use xlink:href="#DejaVuSans-70" x="222.167969"/>
     <use xlink:href="#DejaVuSans-6c" x="285.644531"/>
     <use xlink:href="#DejaVuSans-65" x="313.427734"/>
     <use xlink:href="#DejaVuSans-20" x="374.951172"/>
     <use xlink:href="#DejaVuSans-44" x="406.738281"/>
     <use xlink:href="#DejaVuSans-20" x="483.740234"/>
     <use xlink:href="#DejaVuSans-54" x="515.527344"/>
     <use xlink:href="#DejaVuSans-72" x="561.861328"/>
     <use xlink:href="#DejaVuSans-61" x="602.974609"/>
     <use xlink:href="#DejaVuSans-70" x="664.253906"/>
     <use xlink:href="#DejaVuSans-70" x="727.730469"/>
     <use xlink:href="#DejaVuSans-65" x="791.207031"/>
     <use xlink:href="#DejaVuSans-64" x="852.730469"/>
     <use xlink:href="#DejaVuSans-20" x="916.207031"/>
     <use xlink:href="#DejaVuSans-28" x="947.994141"/>
     <use xlink:href="#DejaVuSans-53" x="987.007812"/>
     <use xlink:href="#DejaVuSans-74" x="1050.484375"/>
     <use xlink:href="#DejaVuSans-72" x="1089.693359"/>
     <use xlink:href="#DejaVuSans-6f" x="1128.556641"/>
     <use xlink:href="#DejaVuSans-6e" x="1189.738281"/>
     <use xlink:href="#DejaVuSans-67" x="1253.117188"/>
     <use xlink:href="#DejaVuSans-29" x="1316.59375"/>
     <use xlink:href="#DejaVuSans-20" x="1355.607422"/>
     <use xlink:href="#DejaVuSans-54" x="1387.394531"/>
     <use xlink:href="#DejaVuSans-69" x="1445.353516"/>
     <use xlink:href="#DejaVuSans-6d" x="1473.136719"/>
     <use xlink:href="#DejaVuSans-65" x="1570.548828"/>
     <use xlink:href="#DejaVuSans-20" x="1632.072266"/>
     <use xlink:href="#DejaVuSans-53" x="1663.859375"/>
     <use xlink:href="#DejaVuSans-65" x="1727.335938"/>
     <use xlink:href="#DejaVuSans-72" x="1788.859375"/>
     <use xlink:href="#DejaVuSans-69" x="1829.972656"/>
     <use xlink:href="#DejaVuSans-65" x="1857.755859"/>
     <use xlink:href="#DejaVuSans-73" x="1919.279297"/>
    </g>
   </g>
  </g>
 </g>
 <defs>
  <clipPath id="p0a66e4d6f8">
   <rect x="54" y="34.56" width="334.8" height="217.44"/>
  </clipPath>
 </defs>
</svg>
