<?xml version="1.0" encoding="utf-8" standalone="no"?>
<!DOCTYPE svg PUBLIC "-//W3C//DTD SVG 1.1//EN"
  "http://www.w3.org/Graphics/SVG/1.1/DTD/svg11.dtd">
<svg xmlns:xlink="http://www.w3.org/1999/xlink" width="432pt" height="288pt" viewBox="0 0 432 288" xmlns="http://www.w3.org/2000/svg" version="1.1">
 <metadata>
  <rdf:RDF xmlns:dc="http://purl.org/dc/elements/1.1/" xmlns:cc="http://creativecommons.org/ns#" xmlns:rdf="http://www.w3.org/1999/02/22-rdf-syntax-ns#">
   <cc:Work>
    <dc:type rdf:resource="http://purl.org/dc/dcmitype/StillImage"/>
    <dc:date>2022-02-22T00:10:39.067650</dc:date>
    <dc:format>image/svg+xml</dc:format>
    <dc:creator>
     <cc:Agent>
      <dc:title>Matplotlib v3.5.1, https://matplotlib.org/</dc:title>
     </cc:Agent>
    </dc:creator>
   </cc:Work>
  </rdf:RDF>
 </metadata>
 <defs>
  <style type="text/css">*{stroke-linejoin: round; stroke-linecap: butt}</style>
 </defs>
 <g id="figure_1">
  <g id="patch_1">
   <path d="M 0 288 
L 432 288 
L 432 0 
L 0 0 
L 0 288 
z
" style="fill: none"/>
  </g>
  <g id="axes_1">
   <g id="patch_2">
    <path d="M 54 252 
L 388.8 252 
L 388.8 34.56 
L 54 34.56 
z
" style="fill: #ffffff"/>
   </g>
   <g id="matplotlib.axis_1">
    <g id="xtick_1">
     <g id="line2d_1">
      <defs>
       <path id="me1289d36cd" d="M 0 0 
L 0 3.5 
" style="stroke: #000000; stroke-width: 0.8"/>
      </defs>
      <g>
       <use xlink:href="#me1289d36cd" x="69.218182" y="252" style="stroke: #000000; stroke-width: 0.8"/>
      </g>
     </g>
     <g id="text_1">
      <!-- 0 -->
      <g transform="translate(66.036932 266.598437)scale(0.1 -0.1)">
       <defs>
        <path id="DejaVuSans-30" d="M 2034 4250 
Q 1547 4250 1301 3770 
Q 1056 3291 1056 2328 
Q 1056 1369 1301 889 
Q 1547 409 2034 409 
Q 2525 409 2770 889 
Q 3016 1369 3016 2328 
Q 3016 3291 2770 3770 
Q 2525 4250 2034 4250 
z
M 2034 4750 
Q 2819 4750 3233 4129 
Q 3647 3509 3647 2328 
Q 3647 1150 3233 529 
Q 2819 -91 2034 -91 
Q 1250 -91 836 529 
Q 422 1150 422 2328 
Q 422 3509 836 4129 
Q 1250 4750 2034 4750 
z
" transform="scale(0.015625)"/>
       </defs>
       <use xlink:href="#DejaVuSans-30"/>
      </g>
     </g>
    </g>
    <g id="xtick_2">
     <g id="line2d_2">
      <g>
       <use xlink:href="#me1289d36cd" x="137.005183" y="252" style="stroke: #000000; stroke-width: 0.8"/>
      </g>
     </g>
     <g id="text_2">
      <!-- 100 -->
      <g transform="translate(127.461433 266.598437)scale(0.1 -0.1)">
       <defs>
        <path id="DejaVuSans-31" d="M 794 531 
L 1825 531 
L 1825 4091 
L 703 3866 
L 703 4441 
L 1819 4666 
L 2450 4666 
L 2450 531 
L 3481 531 
L 3481 0 
L 794 0 
L 794 531 
z
" transform="scale(0.015625)"/>
       </defs>
       <use xlink:href="#DejaVuSans-31"/>
       <use xlink:href="#DejaVuSans-30" x="63.623047"/>
       <use xlink:href="#DejaVuSans-30" x="127.246094"/>
      </g>
     </g>
    </g>
    <g id="xtick_3">
     <g id="line2d_3">
      <g>
       <use xlink:href="#me1289d36cd" x="204.792185" y="252" style="stroke: #000000; stroke-width: 0.8"/>
      </g>
     </g>
     <g id="text_3">
      <!-- 200 -->
      <g transform="translate(195.248435 266.598437)scale(0.1 -0.1)">
       <defs>
        <path id="DejaVuSans-32" d="M 1228 531 
L 3431 531 
L 3431 0 
L 469 0 
L 469 531 
Q 828 903 1448 1529 
Q 2069 2156 2228 2338 
Q 2531 2678 2651 2914 
Q 2772 3150 2772 3378 
Q 2772 3750 2511 3984 
Q 2250 4219 1831 4219 
Q 1534 4219 1204 4116 
Q 875 4013 500 3803 
L 500 4441 
Q 881 4594 1212 4672 
Q 1544 4750 1819 4750 
Q 2544 4750 2975 4387 
Q 3406 4025 3406 3419 
Q 3406 3131 3298 2873 
Q 3191 2616 2906 2266 
Q 2828 2175 2409 1742 
Q 1991 1309 1228 531 
z
" transform="scale(0.015625)"/>
       </defs>
       <use xlink:href="#DejaVuSans-32"/>
       <use xlink:href="#DejaVuSans-30" x="63.623047"/>
       <use xlink:href="#DejaVuSans-30" x="127.246094"/>
      </g>
     </g>
    </g>
    <g id="xtick_4">
     <g id="line2d_4">
      <g>
       <use xlink:href="#me1289d36cd" x="272.579186" y="252" style="stroke: #000000; stroke-width: 0.8"/>
      </g>
     </g>
     <g id="text_4">
      <!-- 300 -->
      <g transform="translate(263.035436 266.598437)scale(0.1 -0.1)">
       <defs>
        <path id="DejaVuSans-33" d="M 2597 2516 
Q 3050 2419 3304 2112 
Q 3559 1806 3559 1356 
Q 3559 666 3084 287 
Q 2609 -91 1734 -91 
Q 1441 -91 1130 -33 
Q 819 25 488 141 
L 488 750 
Q 750 597 1062 519 
Q 1375 441 1716 441 
Q 2309 441 2620 675 
Q 2931 909 2931 1356 
Q 2931 1769 2642 2001 
Q 2353 2234 1838 2234 
L 1294 2234 
L 1294 2753 
L 1863 2753 
Q 2328 2753 2575 2939 
Q 2822 3125 2822 3475 
Q 2822 3834 2567 4026 
Q 2313 4219 1838 4219 
Q 1578 4219 1281 4162 
Q 984 4106 628 3988 
L 628 4550 
Q 988 4650 1302 4700 
Q 1616 4750 1894 4750 
Q 2613 4750 3031 4423 
Q 3450 4097 3450 3541 
Q 3450 3153 3228 2886 
Q 3006 2619 2597 2516 
z
" transform="scale(0.015625)"/>
       </defs>
       <use xlink:href="#DejaVuSans-33"/>
       <use xlink:href="#DejaVuSans-30" x="63.623047"/>
       <use xlink:href="#DejaVuSans-30" x="127.246094"/>
      </g>
     </g>
    </g>
    <g id="xtick_5">
     <g id="line2d_5">
      <g>
       <use xlink:href="#me1289d36cd" x="340.366187" y="252" style="stroke: #000000; stroke-width: 0.8"/>
      </g>
     </g>
     <g id="text_5">
      <!-- 400 -->
      <g transform="translate(330.822437 266.598437)scale(0.1 -0.1)">
       <defs>
        <path id="DejaVuSans-34" d="M 2419 4116 
L 825 1625 
L 2419 1625 
L 2419 4116 
z
M 2253 4666 
L 3047 4666 
L 3047 1625 
L 3713 1625 
L 3713 1100 
L 3047 1100 
L 3047 0 
L 2419 0 
L 2419 1100 
L 313 1100 
L 313 1709 
L 2253 4666 
z
" transform="scale(0.015625)"/>
       </defs>
       <use xlink:href="#DejaVuSans-34"/>
       <use xlink:href="#DejaVuSans-30" x="63.623047"/>
       <use xlink:href="#DejaVuSans-30" x="127.246094"/>
      </g>
     </g>
    </g>
    <g id="text_6">
     <!-- Perportional to Time (1/fps) -->
     <g transform="translate(152.788281 280.276563)scale(0.1 -0.1)">
      <defs>
       <path id="DejaVuSans-50" d="M 1259 4147 
L 1259 2394 
L 2053 2394 
Q 2494 2394 2734 2622 
Q 2975 2850 2975 3272 
Q 2975 3691 2734 3919 
Q 2494 4147 2053 4147 
L 1259 4147 
z
M 628 4666 
L 2053 4666 
Q 2838 4666 3239 4311 
Q 3641 3956 3641 3272 
Q 3641 2581 3239 2228 
Q 2838 1875 2053 1875 
L 1259 1875 
L 1259 0 
L 628 0 
L 628 4666 
z
" transform="scale(0.015625)"/>
       <path id="DejaVuSans-65" d="M 3597 1894 
L 3597 1613 
L 953 1613 
Q 991 1019 1311 708 
Q 1631 397 2203 397 
Q 2534 397 2845 478 
Q 3156 559 3463 722 
L 3463 178 
Q 3153 47 2828 -22 
Q 2503 -91 2169 -91 
Q 1331 -91 842 396 
Q 353 884 353 1716 
Q 353 2575 817 3079 
Q 1281 3584 2069 3584 
Q 2775 3584 3186 3129 
Q 3597 2675 3597 1894 
z
M 3022 2063 
Q 3016 2534 2758 2815 
Q 2500 3097 2075 3097 
Q 1594 3097 1305 2825 
Q 1016 2553 972 2059 
L 3022 2063 
z
" transform="scale(0.015625)"/>
       <path id="DejaVuSans-72" d="M 2631 2963 
Q 2534 3019 2420 3045 
Q 2306 3072 2169 3072 
Q 1681 3072 1420 2755 
Q 1159 2438 1159 1844 
L 1159 0 
L 581 0 
L 581 3500 
L 1159 3500 
L 1159 2956 
Q 1341 3275 1631 3429 
Q 1922 3584 2338 3584 
Q 2397 3584 2469 3576 
Q 2541 3569 2628 3553 
L 2631 2963 
z
" transform="scale(0.015625)"/>
       <path id="DejaVuSans-70" d="M 1159 525 
L 1159 -1331 
L 581 -1331 
L 581 3500 
L 1159 3500 
L 1159 2969 
Q 1341 3281 1617 3432 
Q 1894 3584 2278 3584 
Q 2916 3584 3314 3078 
Q 3713 2572 3713 1747 
Q 3713 922 3314 415 
Q 2916 -91 2278 -91 
Q 1894 -91 1617 61 
Q 1341 213 1159 525 
z
M 3116 1747 
Q 3116 2381 2855 2742 
Q 2594 3103 2138 3103 
Q 1681 3103 1420 2742 
Q 1159 2381 1159 1747 
Q 1159 1113 1420 752 
Q 1681 391 2138 391 
Q 2594 391 2855 752 
Q 3116 1113 3116 1747 
z
" transform="scale(0.015625)"/>
       <path id="DejaVuSans-6f" d="M 1959 3097 
Q 1497 3097 1228 2736 
Q 959 2375 959 1747 
Q 959 1119 1226 758 
Q 1494 397 1959 397 
Q 2419 397 2687 759 
Q 2956 1122 2956 1747 
Q 2956 2369 2687 2733 
Q 2419 3097 1959 3097 
z
M 1959 3584 
Q 2709 3584 3137 3096 
Q 3566 2609 3566 1747 
Q 3566 888 3137 398 
Q 2709 -91 1959 -91 
Q 1206 -91 779 398 
Q 353 888 353 1747 
Q 353 2609 779 3096 
Q 1206 3584 1959 3584 
z
" transform="scale(0.015625)"/>
       <path id="DejaVuSans-74" d="M 1172 4494 
L 1172 3500 
L 2356 3500 
L 2356 3053 
L 1172 3053 
L 1172 1153 
Q 1172 725 1289 603 
Q 1406 481 1766 481 
L 2356 481 
L 2356 0 
L 1766 0 
Q 1100 0 847 248 
Q 594 497 594 1153 
L 594 3053 
L 172 3053 
L 172 3500 
L 594 3500 
L 594 4494 
L 1172 4494 
z
" transform="scale(0.015625)"/>
       <path id="DejaVuSans-69" d="M 603 3500 
L 1178 3500 
L 1178 0 
L 603 0 
L 603 3500 
z
M 603 4863 
L 1178 4863 
L 1178 4134 
L 603 4134 
L 603 4863 
z
" transform="scale(0.015625)"/>
       <path id="DejaVuSans-6e" d="M 3513 2113 
L 3513 0 
L 2938 0 
L 2938 2094 
Q 2938 2591 2744 2837 
Q 2550 3084 2163 3084 
Q 1697 3084 1428 2787 
Q 1159 2491 1159 1978 
L 1159 0 
L 581 0 
L 581 3500 
L 1159 3500 
L 1159 2956 
Q 1366 3272 1645 3428 
Q 1925 3584 2291 3584 
Q 2894 3584 3203 3211 
Q 3513 2838 3513 2113 
z
" transform="scale(0.015625)"/>
       <path id="DejaVuSans-61" d="M 2194 1759 
Q 1497 1759 1228 1600 
Q 959 1441 959 1056 
Q 959 750 1161 570 
Q 1363 391 1709 391 
Q 2188 391 2477 730 
Q 2766 1069 2766 1631 
L 2766 1759 
L 2194 1759 
z
M 3341 1997 
L 3341 0 
L 2766 0 
L 2766 531 
Q 2569 213 2275 61 
Q 1981 -91 1556 -91 
Q 1019 -91 701 211 
Q 384 513 384 1019 
Q 384 1609 779 1909 
Q 1175 2209 1959 2209 
L 2766 2209 
L 2766 2266 
Q 2766 2663 2505 2880 
Q 2244 3097 1772 3097 
Q 1472 3097 1187 3025 
Q 903 2953 641 2809 
L 641 3341 
Q 956 3463 1253 3523 
Q 1550 3584 1831 3584 
Q 2591 3584 2966 3190 
Q 3341 2797 3341 1997 
z
" transform="scale(0.015625)"/>
       <path id="DejaVuSans-6c" d="M 603 4863 
L 1178 4863 
L 1178 0 
L 603 0 
L 603 4863 
z
" transform="scale(0.015625)"/>
       <path id="DejaVuSans-20" transform="scale(0.015625)"/>
       <path id="DejaVuSans-54" d="M -19 4666 
L 3928 4666 
L 3928 4134 
L 2272 4134 
L 2272 0 
L 1638 0 
L 1638 4134 
L -19 4134 
L -19 4666 
z
" transform="scale(0.015625)"/>
       <path id="DejaVuSans-6d" d="M 3328 2828 
Q 3544 3216 3844 3400 
Q 4144 3584 4550 3584 
Q 5097 3584 5394 3201 
Q 5691 2819 5691 2113 
L 5691 0 
L 5113 0 
L 5113 2094 
Q 5113 2597 4934 2840 
Q 4756 3084 4391 3084 
Q 3944 3084 3684 2787 
Q 3425 2491 3425 1978 
L 3425 0 
L 2847 0 
L 2847 2094 
Q 2847 2600 2669 2842 
Q 2491 3084 2119 3084 
Q 1678 3084 1418 2786 
Q 1159 2488 1159 1978 
L 1159 0 
L 581 0 
L 581 3500 
L 1159 3500 
L 1159 2956 
Q 1356 3278 1631 3431 
Q 1906 3584 2284 3584 
Q 2666 3584 2933 3390 
Q 3200 3197 3328 2828 
z
" transform="scale(0.015625)"/>
       <path id="DejaVuSans-28" d="M 1984 4856 
Q 1566 4138 1362 3434 
Q 1159 2731 1159 2009 
Q 1159 1288 1364 580 
Q 1569 -128 1984 -844 
L 1484 -844 
Q 1016 -109 783 600 
Q 550 1309 550 2009 
Q 550 2706 781 3412 
Q 1013 4119 1484 4856 
L 1984 4856 
z
" transform="scale(0.015625)"/>
       <path id="DejaVuSans-2f" d="M 1625 4666 
L 2156 4666 
L 531 -594 
L 0 -594 
L 1625 4666 
z
" transform="scale(0.015625)"/>
       <path id="DejaVuSans-66" d="M 2375 4863 
L 2375 4384 
L 1825 4384 
Q 1516 4384 1395 4259 
Q 1275 4134 1275 3809 
L 1275 3500 
L 2222 3500 
L 2222 3053 
L 1275 3053 
L 1275 0 
L 697 0 
L 697 3053 
L 147 3053 
L 147 3500 
L 697 3500 
L 697 3744 
Q 697 4328 969 4595 
Q 1241 4863 1831 4863 
L 2375 4863 
z
" transform="scale(0.015625)"/>
       <path id="DejaVuSans-73" d="M 2834 3397 
L 2834 2853 
Q 2591 2978 2328 3040 
Q 2066 3103 1784 3103 
Q 1356 3103 1142 2972 
Q 928 2841 928 2578 
Q 928 2378 1081 2264 
Q 1234 2150 1697 2047 
L 1894 2003 
Q 2506 1872 2764 1633 
Q 3022 1394 3022 966 
Q 3022 478 2636 193 
Q 2250 -91 1575 -91 
Q 1294 -91 989 -36 
Q 684 19 347 128 
L 347 722 
Q 666 556 975 473 
Q 1284 391 1588 391 
Q 1994 391 2212 530 
Q 2431 669 2431 922 
Q 2431 1156 2273 1281 
Q 2116 1406 1581 1522 
L 1381 1569 
Q 847 1681 609 1914 
Q 372 2147 372 2553 
Q 372 3047 722 3315 
Q 1072 3584 1716 3584 
Q 2034 3584 2315 3537 
Q 2597 3491 2834 3397 
z
" transform="scale(0.015625)"/>
       <path id="DejaVuSans-29" d="M 513 4856 
L 1013 4856 
Q 1481 4119 1714 3412 
Q 1947 2706 1947 2009 
Q 1947 1309 1714 600 
Q 1481 -109 1013 -844 
L 513 -844 
Q 928 -128 1133 580 
Q 1338 1288 1338 2009 
Q 1338 2731 1133 3434 
Q 928 4138 513 4856 
z
" transform="scale(0.015625)"/>
      </defs>
      <use xlink:href="#DejaVuSans-50"/>
      <use xlink:href="#DejaVuSans-65" x="56.677734"/>
      <use xlink:href="#DejaVuSans-72" x="118.201172"/>
      <use xlink:href="#DejaVuSans-70" x="159.314453"/>
      <use xlink:href="#DejaVuSans-6f" x="222.791016"/>
      <use xlink:href="#DejaVuSans-72" x="283.972656"/>
      <use xlink:href="#DejaVuSans-74" x="325.085938"/>
      <use xlink:href="#DejaVuSans-69" x="364.294922"/>
      <use xlink:href="#DejaVuSans-6f" x="392.078125"/>
      <use xlink:href="#DejaVuSans-6e" x="453.259766"/>
      <use xlink:href="#DejaVuSans-61" x="516.638672"/>
      <use xlink:href="#DejaVuSans-6c" x="577.917969"/>
      <use xlink:href="#DejaVuSans-20" x="605.701172"/>
      <use xlink:href="#DejaVuSans-74" x="637.488281"/>
      <use xlink:href="#DejaVuSans-6f" x="676.697266"/>
      <use xlink:href="#DejaVuSans-20" x="737.878906"/>
      <use xlink:href="#DejaVuSans-54" x="769.666016"/>
      <use xlink:href="#DejaVuSans-69" x="827.625"/>
      <use xlink:href="#DejaVuSans-6d" x="855.408203"/>
      <use xlink:href="#DejaVuSans-65" x="952.820312"/>
      <use xlink:href="#DejaVuSans-20" x="1014.34375"/>
      <use xlink:href="#DejaVuSans-28" x="1046.130859"/>
      <use xlink:href="#DejaVuSans-31" x="1085.144531"/>
      <use xlink:href="#DejaVuSans-2f" x="1148.767578"/>
      <use xlink:href="#DejaVuSans-66" x="1182.458984"/>
      <use xlink:href="#DejaVuSans-70" x="1217.664062"/>
      <use xlink:href="#DejaVuSans-73" x="1281.140625"/>
      <use xlink:href="#DejaVuSans-29" x="1333.240234"/>
     </g>
    </g>
   </g>
   <g id="matplotlib.axis_2">
    <g id="ytick_1">
     <g id="line2d_6">
      <defs>
       <path id="mc80fc5bdf7" d="M 0 0 
L -3.5 0 
" style="stroke: #000000; stroke-width: 0.8"/>
      </defs>
      <g>
       <use xlink:href="#mc80fc5bdf7" x="54" y="229.19659" style="stroke: #000000; stroke-width: 0.8"/>
      </g>
     </g>
     <g id="text_7">
      <!-- −0.3 -->
      <g transform="translate(22.717187 232.995809)scale(0.1 -0.1)">
       <defs>
        <path id="DejaVuSans-2212" d="M 678 2272 
L 4684 2272 
L 4684 1741 
L 678 1741 
L 678 2272 
z
" transform="scale(0.015625)"/>
        <path id="DejaVuSans-2e" d="M 684 794 
L 1344 794 
L 1344 0 
L 684 0 
L 684 794 
z
" transform="scale(0.015625)"/>
       </defs>
       <use xlink:href="#DejaVuSans-2212"/>
       <use xlink:href="#DejaVuSans-30" x="83.789062"/>
       <use xlink:href="#DejaVuSans-2e" x="147.412109"/>
       <use xlink:href="#DejaVuSans-33" x="179.199219"/>
      </g>
     </g>
    </g>
    <g id="ytick_2">
     <g id="line2d_7">
      <g>
       <use xlink:href="#mc80fc5bdf7" x="54" y="200.775435" style="stroke: #000000; stroke-width: 0.8"/>
      </g>
     </g>
     <g id="text_8">
      <!-- −0.2 -->
      <g transform="translate(22.717187 204.574653)scale(0.1 -0.1)">
       <use xlink:href="#DejaVuSans-2212"/>
       <use xlink:href="#DejaVuSans-30" x="83.789062"/>
       <use xlink:href="#DejaVuSans-2e" x="147.412109"/>
       <use xlink:href="#DejaVuSans-32" x="179.199219"/>
      </g>
     </g>
    </g>
    <g id="ytick_3">
     <g id="line2d_8">
      <g>
       <use xlink:href="#mc80fc5bdf7" x="54" y="172.354279" style="stroke: #000000; stroke-width: 0.8"/>
      </g>
     </g>
     <g id="text_9">
      <!-- −0.1 -->
      <g transform="translate(22.717187 176.153498)scale(0.1 -0.1)">
       <use xlink:href="#DejaVuSans-2212"/>
       <use xlink:href="#DejaVuSans-30" x="83.789062"/>
       <use xlink:href="#DejaVuSans-2e" x="147.412109"/>
       <use xlink:href="#DejaVuSans-31" x="179.199219"/>
      </g>
     </g>
    </g>
    <g id="ytick_4">
     <g id="line2d_9">
      <g>
       <use xlink:href="#mc80fc5bdf7" x="54" y="143.933123" style="stroke: #000000; stroke-width: 0.8"/>
      </g>
     </g>
     <g id="text_10">
      <!-- 0.0 -->
      <g transform="translate(31.096875 147.732342)scale(0.1 -0.1)">
       <use xlink:href="#DejaVuSans-30"/>
       <use xlink:href="#DejaVuSans-2e" x="63.623047"/>
       <use xlink:href="#DejaVuSans-30" x="95.410156"/>
      </g>
     </g>
    </g>
    <g id="ytick_5">
     <g id="line2d_10">
      <g>
       <use xlink:href="#mc80fc5bdf7" x="54" y="115.511968" style="stroke: #000000; stroke-width: 0.8"/>
      </g>
     </g>
     <g id="text_11">
      <!-- 0.1 -->
      <g transform="translate(31.096875 119.311187)scale(0.1 -0.1)">
       <use xlink:href="#DejaVuSans-30"/>
       <use xlink:href="#DejaVuSans-2e" x="63.623047"/>
       <use xlink:href="#DejaVuSans-31" x="95.410156"/>
      </g>
     </g>
    </g>
    <g id="ytick_6">
     <g id="line2d_11">
      <g>
       <use xlink:href="#mc80fc5bdf7" x="54" y="87.090812" style="stroke: #000000; stroke-width: 0.8"/>
      </g>
     </g>
     <g id="text_12">
      <!-- 0.2 -->
      <g transform="translate(31.096875 90.890031)scale(0.1 -0.1)">
       <use xlink:href="#DejaVuSans-30"/>
       <use xlink:href="#DejaVuSans-2e" x="63.623047"/>
       <use xlink:href="#DejaVuSans-32" x="95.410156"/>
      </g>
     </g>
    </g>
    <g id="ytick_7">
     <g id="line2d_12">
      <g>
       <use xlink:href="#mc80fc5bdf7" x="54" y="58.669657" style="stroke: #000000; stroke-width: 0.8"/>
      </g>
     </g>
     <g id="text_13">
      <!-- 0.3 -->
      <g transform="translate(31.096875 62.468875)scale(0.1 -0.1)">
       <use xlink:href="#DejaVuSans-30"/>
       <use xlink:href="#DejaVuSans-2e" x="63.623047"/>
       <use xlink:href="#DejaVuSans-33" x="95.410156"/>
      </g>
     </g>
    </g>
    <g id="text_14">
     <!-- Position Relative to Mean [$\mu$m] -->
     <g transform="translate(16.617187 220.28)rotate(-90)scale(0.1 -0.1)">
      <defs>
       <path id="DejaVuSans-52" d="M 2841 2188 
Q 3044 2119 3236 1894 
Q 3428 1669 3622 1275 
L 4263 0 
L 3584 0 
L 2988 1197 
Q 2756 1666 2539 1819 
Q 2322 1972 1947 1972 
L 1259 1972 
L 1259 0 
L 628 0 
L 628 4666 
L 2053 4666 
Q 2853 4666 3247 4331 
Q 3641 3997 3641 3322 
Q 3641 2881 3436 2590 
Q 3231 2300 2841 2188 
z
M 1259 4147 
L 1259 2491 
L 2053 2491 
Q 2509 2491 2742 2702 
Q 2975 2913 2975 3322 
Q 2975 3731 2742 3939 
Q 2509 4147 2053 4147 
L 1259 4147 
z
" transform="scale(0.015625)"/>
       <path id="DejaVuSans-76" d="M 191 3500 
L 800 3500 
L 1894 563 
L 2988 3500 
L 3597 3500 
L 2284 0 
L 1503 0 
L 191 3500 
z
" transform="scale(0.015625)"/>
       <path id="DejaVuSans-4d" d="M 628 4666 
L 1569 4666 
L 2759 1491 
L 3956 4666 
L 4897 4666 
L 4897 0 
L 4281 0 
L 4281 4097 
L 3078 897 
L 2444 897 
L 1241 4097 
L 1241 0 
L 628 0 
L 628 4666 
z
" transform="scale(0.015625)"/>
       <path id="DejaVuSans-5b" d="M 550 4863 
L 1875 4863 
L 1875 4416 
L 1125 4416 
L 1125 -397 
L 1875 -397 
L 1875 -844 
L 550 -844 
L 550 4863 
z
" transform="scale(0.015625)"/>
       <path id="DejaVuSans-Oblique-3bc" d="M -84 -1331 
L 856 3500 
L 1434 3500 
L 1009 1322 
Q 997 1256 987 1175 
Q 978 1094 978 1013 
Q 978 722 1161 565 
Q 1344 409 1684 409 
Q 2147 409 2431 671 
Q 2716 934 2816 1459 
L 3213 3500 
L 3788 3500 
L 3266 809 
Q 3253 750 3248 706 
Q 3244 663 3244 628 
Q 3244 531 3283 486 
Q 3322 441 3406 441 
Q 3438 441 3492 456 
Q 3547 472 3647 513 
L 3559 50 
Q 3422 -19 3297 -55 
Q 3172 -91 3053 -91 
Q 2847 -91 2730 40 
Q 2613 172 2613 403 
Q 2438 153 2195 31 
Q 1953 -91 1625 -91 
Q 1334 -91 1117 43 
Q 900 178 831 397 
L 494 -1331 
L -84 -1331 
z
" transform="scale(0.015625)"/>
       <path id="DejaVuSans-5d" d="M 1947 4863 
L 1947 -844 
L 622 -844 
L 622 -397 
L 1369 -397 
L 1369 4416 
L 622 4416 
L 622 4863 
L 1947 4863 
z
" transform="scale(0.015625)"/>
      </defs>
      <use xlink:href="#DejaVuSans-50" transform="translate(0 0.015625)"/>
      <use xlink:href="#DejaVuSans-6f" transform="translate(60.302734 0.015625)"/>
      <use xlink:href="#DejaVuSans-73" transform="translate(121.484375 0.015625)"/>
      <use xlink:href="#DejaVuSans-69" transform="translate(173.583984 0.015625)"/>
      <use xlink:href="#DejaVuSans-74" transform="translate(201.367188 0.015625)"/>
      <use xlink:href="#DejaVuSans-69" transform="translate(240.576172 0.015625)"/>
      <use xlink:href="#DejaVuSans-6f" transform="translate(268.359375 0.015625)"/>
      <use xlink:href="#DejaVuSans-6e" transform="translate(329.541016 0.015625)"/>
      <use xlink:href="#DejaVuSans-20" transform="translate(392.919922 0.015625)"/>
      <use xlink:href="#DejaVuSans-52" transform="translate(424.707031 0.015625)"/>
      <use xlink:href="#DejaVuSans-65" transform="translate(494.189453 0.015625)"/>
      <use xlink:href="#DejaVuSans-6c" transform="translate(555.712891 0.015625)"/>
      <use xlink:href="#DejaVuSans-61" transform="translate(583.496094 0.015625)"/>
      <use xlink:href="#DejaVuSans-74" transform="translate(644.775391 0.015625)"/>
      <use xlink:href="#DejaVuSans-69" transform="translate(683.984375 0.015625)"/>
      <use xlink:href="#DejaVuSans-76" transform="translate(711.767578 0.015625)"/>
      <use xlink:href="#DejaVuSans-65" transform="translate(770.947266 0.015625)"/>
      <use xlink:href="#DejaVuSans-20" transform="translate(832.470703 0.015625)"/>
      <use xlink:href="#DejaVuSans-74" transform="translate(864.257812 0.015625)"/>
      <use xlink:href="#DejaVuSans-6f" transform="translate(903.466797 0.015625)"/>
      <use xlink:href="#DejaVuSans-20" transform="translate(964.648438 0.015625)"/>
      <use xlink:href="#DejaVuSans-4d" transform="translate(996.435547 0.015625)"/>
      <use xlink:href="#DejaVuSans-65" transform="translate(1082.714844 0.015625)"/>
      <use xlink:href="#DejaVuSans-61" transform="translate(1144.238281 0.015625)"/>
      <use xlink:href="#DejaVuSans-6e" transform="translate(1205.517578 0.015625)"/>
      <use xlink:href="#DejaVuSans-20" transform="translate(1268.896484 0.015625)"/>
      <use xlink:href="#DejaVuSans-5b" transform="translate(1300.683594 0.015625)"/>
      <use xlink:href="#DejaVuSans-Oblique-3bc" transform="translate(1339.697266 0.015625)"/>
      <use xlink:href="#DejaVuSans-6d" transform="translate(1403.320312 0.015625)"/>
      <use xlink:href="#DejaVuSans-5d" transform="translate(1500.732422 0.015625)"/>
     </g>
    </g>
   </g>
   <g id="line2d_13">
    <path d="M 69.218182 124.959647 
L 69.896052 91.779806 
L 70.573922 103.608129 
L 71.251792 154.203484 
L 71.929662 129.029095 
L 72.607532 185.469511 
L 73.285402 178.958507 
L 73.963272 156.352584 
L 74.641142 106.465712 
L 75.319012 155.296747 
L 75.996882 125.273478 
L 76.674752 145.203271 
L 77.352622 131.743007 
L 78.030492 164.131059 
L 78.708362 120.173263 
L 79.386232 141.867375 
L 80.064102 137.900833 
L 80.741972 104.108881 
L 81.419842 108.867921 
L 82.097712 154.698412 
L 82.775582 101.594957 
L 83.453452 167.445079 
L 84.131322 145.259232 
L 84.809192 112.139402 
L 85.487062 161.918609 
L 86.164932 148.758399 
L 86.842802 143.051541 
L 87.520672 158.072444 
L 88.198542 154.465967 
L 88.876412 175.559971 
L 89.554282 147.193002 
L 90.232152 182.545593 
L 90.910022 165.688712 
L 91.587892 168.407383 
L 92.265762 116.48014 
L 92.943632 146.767812 
L 93.621502 105.222453 
L 94.977242 187.365709 
L 95.655112 133.602133 
L 96.332982 177.296237 
L 97.010852 201.546813 
L 97.688722 143.834522 
L 98.366592 149.265684 
L 99.044462 184.31822 
L 99.722332 136.903797 
L 100.400202 208.454953 
L 101.078072 144.585545 
L 101.755942 121.319502 
L 102.433813 136.136367 
L 103.111683 161.179087 
L 103.789553 158.952861 
L 104.467423 146.620801 
L 105.145293 182.525491 
L 105.823163 140.380024 
L 106.501033 189.499111 
L 107.178903 106.942313 
L 107.856773 137.169973 
L 108.534643 116.904475 
L 109.212513 168.267969 
L 109.890383 178.968088 
L 110.568253 186.10356 
L 111.246123 166.630205 
L 111.923993 139.931539 
L 112.601863 215.467418 
L 113.279733 167.75294 
L 113.957603 153.3205 
L 114.635473 179.251381 
L 115.313343 103.29578 
L 115.991213 97.384885 
L 116.669083 107.424884 
L 117.346953 44.443636 
L 118.024823 124.96042 
L 118.702693 95.213201 
L 119.380563 116.55925 
L 120.058433 164.934203 
L 120.736303 121.396483 
L 121.414173 111.368841 
L 122.092043 157.63141 
L 122.769913 137.581951 
L 123.447783 134.1195 
L 124.125653 105.956569 
L 124.803523 158.316244 
L 125.481393 91.854365 
L 126.159263 125.406629 
L 126.837133 114.934907 
L 127.515003 122.562468 
L 128.192873 125.689213 
L 128.870743 79.294974 
L 129.548613 125.089459 
L 130.226483 77.711041 
L 130.904353 125.329857 
L 131.582223 182.934484 
L 132.260093 173.146886 
L 132.937963 179.898288 
L 133.615833 174.347458 
L 134.293703 157.706617 
L 134.971573 132.148158 
L 135.649443 194.517649 
L 137.005183 148.945737 
L 137.683053 154.280883 
L 138.360923 146.749694 
L 139.038793 126.880267 
L 139.716663 111.09158 
L 140.394533 105.888814 
L 141.072403 141.169391 
L 141.750273 109.873891 
L 142.428143 148.347048 
L 143.783883 118.930066 
L 144.461753 163.536335 
L 145.139623 124.079355 
L 145.817493 118.360495 
L 146.495363 130.344847 
L 147.173233 204.128408 
L 147.851103 151.301003 
L 148.528973 157.380283 
L 149.206843 190.992558 
L 149.884714 130.1597 
L 150.562584 163.219874 
L 151.240454 242.116364 
L 151.918324 141.484286 
L 152.596194 144.479007 
L 153.274064 126.709961 
L 153.951934 127.316248 
L 154.629804 161.384606 
L 155.307674 174.509164 
L 155.985544 128.294958 
L 156.663414 140.915425 
L 157.341284 130.131646 
L 158.019154 133.774484 
L 158.697024 199.936664 
L 159.374894 176.214538 
L 160.730634 113.707554 
L 161.408504 153.11688 
L 162.086374 134.819738 
L 162.764244 140.550955 
L 163.442114 127.822824 
L 164.119984 153.585675 
L 164.797854 157.252517 
L 165.475724 133.41037 
L 166.153594 159.545288 
L 166.831464 173.329966 
L 167.509334 122.014835 
L 168.187204 139.904257 
L 168.865074 121.847159 
L 169.542944 133.459443 
L 170.220814 136.93425 
L 170.898684 166.225741 
L 171.576554 121.775856 
L 172.254424 158.844757 
L 172.932294 159.523058 
L 173.610164 175.528138 
L 174.288034 137.439406 
L 175.643774 207.976557 
L 176.321644 161.858368 
L 176.999514 157.051674 
L 177.677384 192.38026 
L 178.355254 146.082039 
L 179.033124 153.157499 
L 179.710994 172.487183 
L 180.388864 124.508657 
L 181.066734 113.760885 
L 181.744604 129.201863 
L 182.422474 113.029107 
L 183.100344 167.957248 
L 183.778214 141.210574 
L 184.456084 104.922169 
L 185.133954 136.182017 
L 185.811824 134.039805 
L 186.489694 190.276184 
L 187.167564 128.963239 
L 187.845434 153.945948 
L 188.523304 156.760636 
L 189.201174 145.808827 
L 189.879044 125.891392 
L 190.556914 154.282719 
L 191.234784 156.209246 
L 191.912654 147.297807 
L 192.590524 172.532562 
L 193.268394 146.686051 
L 193.946264 130.717331 
L 194.624134 101.666239 
L 195.302004 131.137762 
L 195.979874 138.813332 
L 196.657744 197.846218 
L 197.335614 159.133373 
L 198.013485 155.082816 
L 198.691355 120.714759 
L 199.369225 110.891154 
L 200.047095 114.365962 
L 200.724965 129.314851 
L 201.402835 128.600899 
L 202.080705 175.64361 
L 202.758575 120.943864 
L 203.436445 144.30628 
L 204.114315 136.571054 
L 204.792185 142.110236 
L 205.470055 163.072216 
L 206.147925 77.71891 
L 206.825795 152.030568 
L 207.503665 142.447007 
L 208.181535 176.947443 
L 208.859405 121.335532 
L 209.537275 144.001821 
L 210.215145 119.307519 
L 210.893015 151.707574 
L 211.570885 173.785756 
L 212.248755 133.560637 
L 212.926625 148.173465 
L 213.604495 173.8523 
L 214.282365 117.604274 
L 214.960235 123.3835 
L 215.638105 153.371117 
L 216.315975 151.240908 
L 216.993845 172.202888 
L 217.671715 99.18782 
L 218.349585 115.913032 
L 219.027455 203.103025 
L 219.705325 146.494934 
L 220.383195 195.433989 
L 221.061065 110.536766 
L 221.738935 120.7688 
L 222.416805 145.799518 
L 223.094675 135.483824 
L 223.772545 210.995699 
L 224.450415 157.940252 
L 225.128285 143.651837 
L 225.806155 117.529276 
L 226.484025 131.469982 
L 227.161895 98.482176 
L 228.517635 162.322111 
L 229.195505 141.336482 
L 229.873375 186.086777 
L 230.551245 169.493944 
L 231.229115 139.902754 
L 231.906985 152.18716 
L 232.584855 107.005141 
L 233.262725 110.395934 
L 233.940595 181.695045 
L 234.618465 168.318796 
L 235.296335 204.223486 
L 235.974205 143.630672 
L 236.652075 155.783054 
L 238.007815 137.576106 
L 238.685685 125.26805 
L 239.363555 107.715044 
L 240.041425 115.954716 
L 240.719295 136.016532 
L 241.397165 139.863408 
L 242.075035 161.461503 
L 242.752905 165.944493 
L 243.430775 120.498427 
L 244.108645 192.229616 
L 244.786515 177.521126 
L 245.464386 197.426914 
L 246.142256 195.500742 
L 246.820126 136.420202 
L 247.497996 160.586763 
L 248.175866 111.095963 
L 248.853736 93.206895 
L 249.531606 137.549116 
L 250.209476 102.280896 
L 250.887346 123.002833 
L 251.565216 116.671861 
L 252.920956 151.58655 
L 253.598826 134.081552 
L 254.276696 154.635458 
L 254.954566 150.056804 
L 255.632436 130.151371 
L 256.310306 149.877127 
L 256.988176 152.067701 
L 257.666046 147.585066 
L 258.343916 162.365924 
L 259.021786 157.83528 
L 259.699656 203.845803 
L 260.377526 150.430291 
L 261.055396 141.2308 
L 261.733266 96.876931 
L 262.411136 124.164059 
L 263.089006 124.290259 
L 263.766876 113.362454 
L 264.444746 130.783792 
L 265.122616 134.102571 
L 265.800486 131.360251 
L 266.478356 143.476626 
L 267.156226 139.294045 
L 267.834096 158.311672 
L 268.511966 119.130742 
L 269.189836 137.728293 
L 269.867706 146.98815 
L 270.545576 112.188015 
L 271.223446 127.821028 
L 271.901316 131.883943 
L 272.579186 133.786465 
L 273.257056 101.542793 
L 273.934926 134.33892 
L 274.612796 198.052655 
L 275.290666 173.502379 
L 275.968536 139.986477 
L 276.646406 175.231047 
L 277.324276 93.922475 
L 278.002146 128.434913 
L 278.680016 155.638025 
L 279.357886 169.206664 
L 280.035756 118.995733 
L 280.713626 139.393611 
L 281.391496 144.896787 
L 282.069366 109.31651 
L 282.747236 113.931524 
L 283.425106 122.339227 
L 284.102976 137.360129 
L 284.780846 174.164983 
L 285.458716 161.256819 
L 286.136586 132.049698 
L 286.814456 148.078783 
L 287.492326 155.706344 
L 288.170196 106.755642 
L 288.848066 148.229342 
L 289.525936 150.76798 
L 290.203806 157.267337 
L 290.881676 129.944558 
L 291.559546 137.068027 
L 292.237416 162.098745 
L 292.915286 149.010548 
L 293.593157 152.701395 
L 294.271027 147.630653 
L 294.948897 144.744307 
L 295.626767 99.178218 
L 296.304637 136.991255 
L 296.982507 149.287663 
L 297.660377 188.744998 
L 298.338247 129.340399 
L 299.016117 134.747558 
L 299.693987 160.054326 
L 300.371857 170.802453 
L 301.049727 179.222157 
L 301.727597 122.181988 
L 302.405467 132.318004 
L 303.083337 137.917197 
L 303.761207 171.421452 
L 304.439077 98.586417 
L 305.116947 134.107038 
L 305.794817 104.995935 
L 306.472687 152.758776 
L 307.150557 114.934092 
L 307.828427 123.689858 
L 308.506297 137.366516 
L 309.184167 128.167025 
L 309.862037 145.456338 
L 310.539907 143.302125 
L 311.217777 121.392328 
L 311.895647 131.060259 
L 312.573517 155.190814 
L 313.251387 111.917141 
L 313.929257 106.52234 
L 314.607127 126.992231 
L 315.284997 98.001149 
L 315.962867 130.941302 
L 316.640737 122.293911 
L 317.318607 152.581582 
L 317.996477 120.073863 
L 318.674347 158.030925 
L 319.352217 215.8996 
L 320.030087 162.148027 
L 320.707957 134.129122 
L 321.385827 156.591374 
L 322.063697 154.749217 
L 322.741567 126.358244 
L 323.419437 149.432607 
L 324.097307 150.110908 
L 324.775177 136.326585 
L 325.453047 114.632827 
L 326.130917 107.161649 
L 327.486657 146.385119 
L 328.164527 133.861024 
L 328.842397 160.344006 
L 329.520267 131.004861 
L 330.198137 167.641684 
L 330.876007 106.820829 
L 331.553877 144.021755 
L 332.231747 144.580033 
L 332.909617 110.752074 
L 333.587487 105.549308 
L 334.265357 117.857718 
L 334.943227 101.961012 
L 335.621097 123.175037 
L 336.298967 133.575101 
L 337.654707 162.680736 
L 338.332577 167.067709 
L 339.010447 147.474332 
L 339.688317 121.555808 
L 340.366187 176.976039 
L 341.044058 141.599799 
L 341.721928 153.356109 
L 342.399798 157.130971 
L 343.077668 144.366833 
L 343.755538 121.712901 
L 344.433408 162.094403 
L 345.111278 176.107123 
L 345.789148 179.833976 
L 346.467018 191.938349 
L 347.144888 153.801609 
L 347.822758 158.824697 
L 348.500628 193.073087 
L 349.856368 136.099107 
L 350.534238 115.209495 
L 351.212108 121.384792 
L 351.889978 112.965443 
L 352.567848 121.805224 
L 353.923588 193.158522 
L 354.601458 148.120529 
L 355.279328 150.347111 
L 355.957198 119.783744 
L 356.635068 98.017973 
L 357.312938 142.828279 
L 357.990808 124.135065 
L 358.668678 154.266709 
L 360.024418 112.031402 
L 360.702288 146.135766 
L 361.380158 188.173569 
L 362.058028 148.512552 
L 362.735898 187.813858 
L 363.413768 150.061187 
L 364.091638 147.162839 
L 364.769508 142.284131 
L 365.447378 112.980993 
L 366.125248 78.492914 
L 366.803118 124.203384 
L 367.480988 114.571814 
L 368.158858 137.670181 
L 368.836728 156.891846 
L 369.514598 142.54342 
L 370.192468 143.665801 
L 370.870338 143.94803 
L 371.548208 160.433197 
L 372.226078 150.405556 
L 373.581818 134.863091 
L 373.581818 134.863091 
" clip-path="url(#p8d2afb243b)" style="fill: none; stroke: #1f77b4; stroke-width: 1.5; stroke-linecap: square"/>
   </g>
   <g id="line2d_14">
    <path d="M 69.218182 142.947441 
L 69.896052 161.890641 
L 70.573922 156.337396 
L 71.251792 135.661408 
L 71.929662 122.750829 
L 72.607532 175.144096 
L 73.285402 123.586506 
L 73.963272 162.645354 
L 74.641142 145.870074 
L 75.319012 98.117175 
L 75.996882 143.117101 
L 76.674752 129.066315 
L 77.352622 135.407228 
L 78.030492 120.348259 
L 78.708362 200.526566 
L 79.386232 161.427236 
L 80.064102 131.761618 
L 80.741972 145.087798 
L 81.419842 187.723295 
L 82.097712 140.402474 
L 82.775582 137.369686 
L 83.453452 110.58459 
L 84.131322 103.387048 
L 84.809192 93.68105 
L 85.487062 158.964655 
L 86.164932 151.47906 
L 86.842802 118.860906 
L 88.198542 179.083356 
L 88.876412 191.845434 
L 89.554282 159.083254 
L 90.232152 133.750421 
L 90.910022 163.819638 
L 91.587892 187.563708 
L 92.265762 160.262519 
L 92.943632 166.519417 
L 93.621502 158.9138 
L 94.299372 123.17508 
L 94.977242 148.347409 
L 95.655112 106.367557 
L 96.332982 159.781009 
L 97.010852 151.167209 
L 97.688722 131.319371 
L 98.366592 129.630828 
L 99.044462 160.756237 
L 99.722332 138.555973 
L 100.400202 111.722868 
L 101.078072 133.798635 
L 101.755942 127.621278 
L 103.111683 158.85847 
L 103.789553 133.309598 
L 104.467423 145.087497 
L 105.145293 219.168698 
L 105.823163 152.824426 
L 106.501033 141.726176 
L 107.178903 210.514417 
L 107.856773 206.833512 
L 108.534643 117.133003 
L 109.212513 125.178226 
L 109.890383 163.540947 
L 110.568253 173.182459 
L 111.246123 119.392465 
L 111.923993 129.574074 
L 112.601863 122.484551 
L 113.279733 107.569608 
L 113.957603 103.048551 
L 114.635473 156.089936 
L 115.313343 149.552513 
L 115.991213 134.001454 
L 116.669083 192.335799 
L 117.346953 136.061354 
L 118.024823 162.625936 
L 118.702693 173.167611 
L 119.380563 114.588747 
L 120.058433 100.009865 
L 120.736303 128.350769 
L 121.414173 139.42054 
L 122.092043 145.149342 
L 122.769913 101.969272 
L 123.447783 167.648949 
L 124.803523 183.511353 
L 125.481393 187.72788 
L 126.159263 116.10265 
L 126.837133 119.046947 
L 127.515003 118.366587 
L 128.192873 150.380157 
L 128.870743 132.428663 
L 129.548613 130.644102 
L 130.226483 163.905899 
L 130.904353 104.714924 
L 131.582223 117.501007 
L 132.260093 125.990309 
L 132.937963 106.40652 
L 133.615833 132.995106 
L 134.293703 143.75282 
L 134.971573 144.83678 
L 135.649443 120.608147 
L 136.327313 168.78865 
L 137.683053 100.899861 
L 138.360923 120.11911 
L 139.038793 122.775355 
L 139.716663 148.823843 
L 140.394533 209.078536 
L 141.072403 134.50077 
L 141.750273 172.02334 
L 142.428143 135.24043 
L 143.106013 124.274204 
L 144.461753 167.117501 
L 145.139623 134.319314 
L 145.817493 177.578924 
L 146.495363 111.318668 
L 147.173233 142.444077 
L 147.851103 134.598416 
L 148.528973 134.650188 
L 149.206843 182.674663 
L 149.884714 109.573165 
L 150.562584 173.392505 
L 151.240454 145.503209 
L 151.918324 189.458945 
L 152.596194 123.378721 
L 153.274064 116.169176 
L 153.951934 128.607195 
L 154.629804 125.154331 
L 155.307674 158.008054 
L 155.985544 139.852523 
L 156.663414 136.39966 
L 157.341284 164.99261 
L 158.019154 138.087492 
L 158.697024 156.382573 
L 159.374894 185.995708 
L 160.052764 122.37593 
L 160.730634 146.372046 
L 161.408504 147.047931 
L 162.086374 130.572706 
L 162.764244 99.754878 
L 163.442114 171.96374 
L 164.119984 101.694756 
L 165.475724 137.768825 
L 166.153594 153.411426 
L 166.831464 174.959097 
L 167.509334 138.440235 
L 168.187204 118.196326 
L 168.865074 147.941485 
L 169.542944 118.083831 
L 170.220814 128.613504 
L 170.898684 126.048802 
L 171.576554 178.045997 
L 172.254424 128.888843 
L 172.932294 129.552726 
L 173.610164 200.045276 
L 174.288034 113.249294 
L 174.965904 162.221941 
L 175.643774 158.024942 
L 176.321644 150.623362 
L 176.999514 98.597688 
L 178.355254 208.461143 
L 179.033124 120.128882 
L 179.710994 183.816198 
L 180.388864 102.865276 
L 181.066734 122.420586 
L 181.744604 214.43304 
L 182.422474 184.395354 
L 183.100344 120.499526 
L 183.778214 111.489655 
L 184.456084 125.848022 
L 185.133954 117.22222 
L 185.811824 165.498741 
L 186.489694 128.76384 
L 187.167564 117.701596 
L 187.845434 149.919203 
L 188.523304 103.066467 
L 189.201174 140.180962 
L 189.879044 117.536617 
L 190.556914 84.786439 
L 191.234784 96.732369 
L 191.912654 98.104381 
L 192.590524 104.553313 
L 193.268394 158.566874 
L 193.946264 106.109121 
L 194.624134 198.42163 
L 195.302004 200.861835 
L 195.979874 144.563385 
L 196.657744 110.480966 
L 197.335614 181.225562 
L 198.013485 131.108233 
L 198.691355 127.343313 
L 199.369225 140.249417 
L 200.047095 131.43158 
L 200.724965 107.647029 
L 201.402835 149.118314 
L 202.080705 168.241546 
L 202.758575 157.299324 
L 203.436445 114.179265 
L 204.114315 170.329213 
L 204.792185 176.670127 
L 205.470055 176.253814 
L 206.147925 184.058993 
L 206.825795 116.010411 
L 207.503665 143.571174 
L 208.181535 164.410717 
L 208.859405 142.186448 
L 209.537275 188.458605 
L 210.215145 113.508772 
L 210.893015 108.171566 
L 211.570885 131.375539 
L 212.248755 114.756287 
L 212.926625 161.628552 
L 213.604495 153.806896 
L 214.282365 150.846122 
L 214.960235 169.249223 
L 215.638105 135.982951 
L 216.315975 132.446073 
L 216.993845 128.093046 
L 217.671715 159.254461 
L 218.349585 113.025838 
L 219.027455 123.627524 
L 219.705325 124.459438 
L 220.383195 154.948732 
L 221.061065 127.08344 
L 221.738935 143.878249 
L 222.416805 104.586884 
L 223.094675 146.466244 
L 223.772545 169.166125 
L 224.450415 117.812572 
L 225.128285 206.176364 
L 226.484025 123.76494 
L 227.161895 180.238948 
L 227.839765 158.182709 
L 228.517635 160.5389 
L 229.195505 142.99548 
L 229.873375 166.103435 
L 230.551245 127.100122 
L 231.229115 136.909665 
L 231.906985 164.506434 
L 232.584855 155.148499 
L 233.940595 124.166404 
L 234.618465 147.322368 
L 235.296335 117.740765 
L 235.974205 158.323889 
L 236.652075 161.532234 
L 237.329945 141.612383 
L 238.007815 118.25991 
L 238.685685 124.168745 
L 239.363555 158.79879 
L 240.041425 115.378676 
L 240.719295 155.769766 
L 242.075035 125.975887 
L 242.752905 166.691035 
L 243.430775 118.482053 
L 244.108645 132.432347 
L 244.786515 126.627056 
L 245.464386 149.662998 
L 246.142256 155.547828 
L 246.820126 110.483416 
L 247.497996 123.305505 
L 248.175866 132.35891 
L 248.853736 186.97258 
L 249.531606 115.431365 
L 250.209476 144.408385 
L 250.887346 116.579099 
L 251.565216 131.189512 
L 252.243086 152.425127 
L 252.920956 119.794971 
L 253.598826 159.309902 
L 254.276696 155.568986 
L 254.954566 113.889188 
L 255.632436 121.058252 
L 256.310306 130.795781 
L 256.988176 91.264373 
L 258.343916 183.544638 
L 259.021786 191.121775 
L 259.699656 144.437069 
L 260.377526 168.637222 
L 261.055396 133.750657 
L 261.733266 195.601639 
L 262.411136 130.397574 
L 263.089006 149.628825 
L 263.766876 149.58458 
L 264.444746 133.901498 
L 265.800486 159.929745 
L 266.478356 111.9248 
L 267.156226 169.575021 
L 267.834096 121.954145 
L 268.511966 178.704202 
L 269.867706 151.310759 
L 270.545576 190.033546 
L 271.223446 195.930379 
L 271.901316 165.520625 
L 272.579186 149.273441 
L 273.257056 151.977694 
L 273.934926 99.759985 
L 274.612796 122.987961 
L 275.290666 136.182117 
L 275.968536 123.463573 
L 276.646406 140.9065 
L 277.324276 212.599268 
L 278.680016 139.933612 
L 279.357886 171.419086 
L 280.035756 168.818377 
L 280.713626 146.5461 
L 281.391496 170.95029 
L 282.069366 215.374111 
L 283.425106 139.887944 
L 284.102976 198.510341 
L 284.780846 160.035124 
L 285.458716 176.409857 
L 286.136586 149.984827 
L 286.814456 160.454489 
L 287.492326 144.603376 
L 288.170196 153.296716 
L 288.848066 154.440686 
L 289.525936 134.892903 
L 290.203806 171.95939 
L 290.881676 192.678911 
L 291.559546 158.956557 
L 292.237416 166.917764 
L 292.915286 131.431089 
L 293.593157 164.560862 
L 294.271027 179.351308 
L 294.948897 152.530205 
L 295.626767 163.191902 
L 296.304637 135.302606 
L 296.982507 129.533322 
L 297.660377 153.54144 
L 298.338247 115.990391 
L 299.016117 106.536439 
L 299.693987 141.130477 
L 300.371857 168.763253 
L 301.049727 119.318046 
L 301.727597 157.056655 
L 302.405467 142.033692 
L 303.083337 157.424247 
L 303.761207 206.552922 
L 304.439077 143.701283 
L 305.116947 141.388627 
L 305.794817 132.01869 
L 306.472687 144.852781 
L 307.150557 152.585946 
L 307.828427 148.100896 
L 308.506297 161.775139 
L 309.184167 137.366474 
L 309.862037 130.276951 
L 310.539907 138.874273 
L 311.217777 172.892207 
L 311.895647 129.688133 
L 312.573517 121.866477 
L 313.251387 167.970603 
L 313.929257 122.354091 
L 314.607127 97.957428 
L 315.284997 161.392698 
L 315.962867 122.773455 
L 316.640737 189.509324 
L 317.318607 144.744967 
L 317.996477 152.406119 
L 318.674347 111.782513 
L 319.352217 189.464367 
L 320.030087 157.43432 
L 320.707957 139.242783 
L 321.385827 135.02178 
L 322.063697 117.03428 
L 322.741567 129.124236 
L 324.097307 163.469992 
L 324.775177 170.471025 
L 325.453047 148.138736 
L 326.130917 162.245058 
L 326.808787 159.560334 
L 327.486657 123.41354 
L 328.164527 158.259624 
L 328.842397 171.981876 
L 329.520267 86.422118 
L 330.198137 142.308019 
L 330.876007 151.769498 
L 331.553877 115.478677 
L 332.231747 165.087439 
L 332.909617 165.439266 
L 333.587487 134.345388 
L 334.265357 154.056727 
L 334.943227 211.094836 
L 335.621097 138.893502 
L 336.298967 159.793056 
L 336.976837 170.634785 
L 337.654707 173.086993 
L 338.332577 161.616675 
L 339.010447 148.069981 
L 339.688317 149.862069 
L 340.366187 157.607236 
L 341.044058 156.842861 
L 341.721928 141.243794 
L 342.399798 150.921312 
L 343.077668 168.844326 
L 343.755538 125.232178 
L 344.433408 150.320492 
L 345.111278 143.398999 
L 345.789148 198.588773 
L 346.467018 184.838042 
L 347.144888 129.607786 
L 347.822758 134.784488 
L 348.500628 132.579851 
L 349.178498 112.840033 
L 349.856368 148.106193 
L 350.534238 129.458573 
L 351.212108 120.940791 
L 351.889978 153.326428 
L 352.567848 99.560438 
L 353.245718 115.143027 
L 353.923588 68.242282 
L 354.601458 157.542244 
L 355.279328 123.123764 
L 355.957198 115.422129 
L 356.635068 180.981785 
L 357.312938 157.209235 
L 357.990808 122.802757 
L 358.668678 130.655944 
L 359.346548 143.886107 
L 360.024418 118.91334 
L 360.702288 102.534131 
L 361.380158 150.078519 
L 362.058028 132.499093 
L 362.735898 124.245358 
L 363.413768 134.919057 
L 364.091638 117.66369 
L 365.447378 181.558806 
L 366.803118 130.857135 
L 367.480988 161.526461 
L 368.158858 116.918132 
L 368.836728 155.112823 
L 369.514598 118.761992 
L 370.192468 112.344591 
L 370.870338 117.545297 
L 371.548208 156.736169 
L 372.226078 115.82451 
L 372.903948 137.900278 
L 373.581818 87.266856 
L 373.581818 87.266856 
" clip-path="url(#p8d2afb243b)" style="fill: none; stroke: #ff7f0e; stroke-width: 1.5; stroke-linecap: square"/>
   </g>
   <g id="patch_3">
    <path d="M 54 252 
L 54 34.56 
" style="fill: none; stroke: #000000; stroke-width: 0.8; stroke-linejoin: miter; stroke-linecap: square"/>
   </g>
   <g id="patch_4">
    <path d="M 388.8 252 
L 388.8 34.56 
" style="fill: none; stroke: #000000; stroke-width: 0.8; stroke-linejoin: miter; stroke-linecap: square"/>
   </g>
   <g id="patch_5">
    <path d="M 54 252 
L 388.8 252 
" style="fill: none; stroke: #000000; stroke-width: 0.8; stroke-linejoin: miter; stroke-linecap: square"/>
   </g>
   <g id="patch_6">
    <path d="M 54 34.56 
L 388.8 34.56 
" style="fill: none; stroke: #000000; stroke-width: 0.8; stroke-linejoin: miter; stroke-linecap: square"/>
   </g>
   <g id="text_15">
    <!-- Sample D Trapped (Weak) Time Series -->
    <g transform="translate(106.468125 28.56)scale(0.12 -0.12)">
     <defs>
      <path id="DejaVuSans-53" d="M 3425 4513 
L 3425 3897 
Q 3066 4069 2747 4153 
Q 2428 4238 2131 4238 
Q 1616 4238 1336 4038 
Q 1056 3838 1056 3469 
Q 1056 3159 1242 3001 
Q 1428 2844 1947 2747 
L 2328 2669 
Q 3034 2534 3370 2195 
Q 3706 1856 3706 1288 
Q 3706 609 3251 259 
Q 2797 -91 1919 -91 
Q 1588 -91 1214 -16 
Q 841 59 441 206 
L 441 856 
Q 825 641 1194 531 
Q 1563 422 1919 422 
Q 2459 422 2753 634 
Q 3047 847 3047 1241 
Q 3047 1584 2836 1778 
Q 2625 1972 2144 2069 
L 1759 2144 
Q 1053 2284 737 2584 
Q 422 2884 422 3419 
Q 422 4038 858 4394 
Q 1294 4750 2059 4750 
Q 2388 4750 2728 4690 
Q 3069 4631 3425 4513 
z
" transform="scale(0.015625)"/>
      <path id="DejaVuSans-44" d="M 1259 4147 
L 1259 519 
L 2022 519 
Q 2988 519 3436 956 
Q 3884 1394 3884 2338 
Q 3884 3275 3436 3711 
Q 2988 4147 2022 4147 
L 1259 4147 
z
M 628 4666 
L 1925 4666 
Q 3281 4666 3915 4102 
Q 4550 3538 4550 2338 
Q 4550 1131 3912 565 
Q 3275 0 1925 0 
L 628 0 
L 628 4666 
z
" transform="scale(0.015625)"/>
      <path id="DejaVuSans-64" d="M 2906 2969 
L 2906 4863 
L 3481 4863 
L 3481 0 
L 2906 0 
L 2906 525 
Q 2725 213 2448 61 
Q 2172 -91 1784 -91 
Q 1150 -91 751 415 
Q 353 922 353 1747 
Q 353 2572 751 3078 
Q 1150 3584 1784 3584 
Q 2172 3584 2448 3432 
Q 2725 3281 2906 2969 
z
M 947 1747 
Q 947 1113 1208 752 
Q 1469 391 1925 391 
Q 2381 391 2643 752 
Q 2906 1113 2906 1747 
Q 2906 2381 2643 2742 
Q 2381 3103 1925 3103 
Q 1469 3103 1208 2742 
Q 947 2381 947 1747 
z
" transform="scale(0.015625)"/>
      <path id="DejaVuSans-57" d="M 213 4666 
L 850 4666 
L 1831 722 
L 2809 4666 
L 3519 4666 
L 4500 722 
L 5478 4666 
L 6119 4666 
L 4947 0 
L 4153 0 
L 3169 4050 
L 2175 0 
L 1381 0 
L 213 4666 
z
" transform="scale(0.015625)"/>
      <path id="DejaVuSans-6b" d="M 581 4863 
L 1159 4863 
L 1159 1991 
L 2875 3500 
L 3609 3500 
L 1753 1863 
L 3688 0 
L 2938 0 
L 1159 1709 
L 1159 0 
L 581 0 
L 581 4863 
z
" transform="scale(0.015625)"/>
     </defs>
     <use xlink:href="#DejaVuSans-53"/>
     <use xlink:href="#DejaVuSans-61" x="63.476562"/>
     <use xlink:href="#DejaVuSans-6d" x="124.755859"/>
     <use xlink:href="#DejaVuSans-70" x="222.167969"/>
     <use xlink:href="#DejaVuSans-6c" x="285.644531"/>
     <use xlink:href="#DejaVuSans-65" x="313.427734"/>
     <use xlink:href="#DejaVuSans-20" x="374.951172"/>
     <use xlink:href="#DejaVuSans-44" x="406.738281"/>
     <use xlink:href="#DejaVuSans-20" x="483.740234"/>
     <use xlink:href="#DejaVuSans-54" x="515.527344"/>
     <use xlink:href="#DejaVuSans-72" x="561.861328"/>
     <use xlink:href="#DejaVuSans-61" x="602.974609"/>
     <use xlink:href="#DejaVuSans-70" x="664.253906"/>
     <use xlink:href="#DejaVuSans-70" x="727.730469"/>
     <use xlink:href="#DejaVuSans-65" x="791.207031"/>
     <use xlink:href="#DejaVuSans-64" x="852.730469"/>
     <use xlink:href="#DejaVuSans-20" x="916.207031"/>
     <use xlink:href="#DejaVuSans-28" x="947.994141"/>
     <use xlink:href="#DejaVuSans-57" x="987.007812"/>
     <use xlink:href="#DejaVuSans-65" x="1080.009766"/>
     <use xlink:href="#DejaVuSans-61" x="1141.533203"/>
     <use xlink:href="#DejaVuSans-6b" x="1202.8125"/>
     <use xlink:href="#DejaVuSans-29" x="1260.722656"/>
     <use xlink:href="#DejaVuSans-20" x="1299.736328"/>
     <use xlink:href="#DejaVuSans-54" x="1331.523438"/>
     <use xlink:href="#DejaVuSans-69" x="1389.482422"/>
     <use xlink:href="#DejaVuSans-6d" x="1417.265625"/>
     <use xlink:href="#DejaVuSans-65" x="1514.677734"/>
     <use xlink:href="#DejaVuSans-20" x="1576.201172"/>
     <use xlink:href="#DejaVuSans-53" x="1607.988281"/>
     <use xlink:href="#DejaVuSans-65" x="1671.464844"/>
     <use xlink:href="#DejaVuSans-72" x="1732.988281"/>
     <use xlink:href="#DejaVuSans-69" x="1774.101562"/>
     <use xlink:href="#DejaVuSans-65" x="1801.884766"/>
     <use xlink:href="#DejaVuSans-73" x="1863.408203"/>
    </g>
   </g>
  </g>
 </g>
 <defs>
  <clipPath id="p8d2afb243b">
   <rect x="54" y="34.56" width="334.8" height="217.44"/>
  </clipPath>
 </defs>
</svg>
